<?xml version="1.0" standalone="no"?><!DOCTYPE svg PUBLIC "-//W3C//DTD SVG 1.1//EN" "http://www.w3.org/Graphics/SVG/1.1/DTD/svg11.dtd"><svg t="1600659824638" class="icon" viewBox="0 0 1024 1024" version="1.1" xmlns="http://www.w3.org/2000/svg" p-id="3919" xmlns:xlink="http://www.w3.org/1999/xlink" width="200" height="200"><defs><style type="text/css"></style></defs><path d="M987.18875244 310.06583805c-11.94427312-20.28455168-26.94020447-37.54506198-44.89113517-51.68487202L588.52619842 38.92393403c-21.92775227-14.19504366-46.60337778-21.26494868-73.95783449-21.26494869-27.43730717 0-52.03008222 7.13894705-73.95783448 21.27875709L86.83911058 258.39477443c-21.27875708 14.13981003-38.38737488 31.3865119-51.25681135 51.684872-12.86943647 20.2983601-19.3041547 43.05461686-19.3041547 68.15830304v488.09961412c1.27037355 39.947725 15.13401543 73.10171317 41.57711718 99.54481494 26.37405971 26.44310176 59.59708993 40.29293521 99.54481493 41.57711719h707.54283773c39.947725-1.27037355 73.10171317-15.13401543 99.54481493-41.57711719 26.44310176-26.44310176 40.29293521-59.59708993 41.57711719-99.54481494V378.22414107c-0.70422882-25.1589198-6.93182094-47.85994293-18.87609405-68.15830302zM727.94969632 524.01331517L492.41967713 859.25385017c-12.49660945 17.7990382-40.48625294 7.00086297-37.79361332-14.58167909l23.75046215-190.266057c1.56035013-12.51041787-8.22981131-23.52952763-20.83688802-23.46048558l-157.00160158 0.91135493c-17.26051028 0.09665887-27.17494739-19.6079397-16.80483283-33.4163479l254.86179072-339.24497341c12.73135238-16.9567253 39.71298207-6.31044256 37.44840312 14.77499681l-20.69880393 192.58586958c-1.31179878 12.2480581 8.20219449 22.9633829 20.53310304 23.10146697l135.2395502 1.47749969c16.79102442 0.19331772 26.49833539 19.1246454 16.83244964 32.87782z" p-id="3920"></path></svg>