<?xml version="1.0" standalone="no"?>
<!DOCTYPE svg PUBLIC "-//W3C//DTD SVG 1.1//EN" "http://www.w3.org/Graphics/SVG/1.1/DTD/svg11.dtd" >
<!--
2013-9-30: Created.
-->
<svg>
<metadata>
Created by iconfont
</metadata>
<defs>

<font id="iconfont" horiz-adv-x="1024" >
  <font-face
    font-family="iconfont"
    font-weight="500"
    font-stretch="normal"
    units-per-em="1024"
    ascent="896"
    descent="-128"
  />
    <missing-glyph />
    
    <glyph glyph-name="kuangshan" unicode="&#59024;" d="M977.63 84H45V275.63h2.38a40.88 40.88 0 0 0 2.16 9.2V285l141.65 356.28c5.9 14.75 20.65 24.52 37.14 24.62H369.7a40.84 40.84 0 0 0 26.17-9.41l38.67-32.55L550.2 769.66a40.72 40.72 0 0 0 42.71 13.53L875.65 704c14.6-4.15 25.48-15.85 28.1-30.2l70.78-396a11.84 11.84 0 0 0 0.19-2.18h2.9zM335.69 433.43h0.13a57.93 57.93 0 1 0-0.13 0zM598.4 479c16.54 18.13 42.53 18.13 59.06 0l74.14-82.19c7.87-8.61 12.35-20.56 12.35-33.07s-4.48-24.47-12.35-33.08c-16.53-18.1-42.51-18.1-59 0L628 380.14l-44.55-49.34c-16.53-18.16-42.55-18.16-59.08 0-7.86 8.61-12.32 20.55-12.32 33s4.46 24.43 12.32 33z"  horiz-adv-x="1024" />

    
    <glyph glyph-name="yunshucheliang" unicode="&#59023;" d="M119.68 441.6l96.64 132.48h171.52V441.6H119.68zM273.28 272c12.8-12.8 20.48-30.08 20.48-49.28s-7.68-36.48-20.48-48.64c-12.8-12.8-30.08-20.48-49.28-20.48s-36.48 7.68-49.28 20.48-20.48 30.08-20.48 48.64c0 19.2 7.68 36.48 20.48 49.28s30.08 20.48 49.28 20.48c19.2-0.64 37.12-8.32 49.28-20.48zM67.84 190.72H86.4c6.4-26.24 19.2-49.28 37.76-67.84 25.6-25.6 60.8-41.6 100.48-41.6 39.04 0 74.24 16 100.48 41.6 18.56 18.56 31.36 41.6 37.76 67.84h97.92V646.4H179.2L38.4 453.12v-131.2H0v-131.84h67.84z m752 81.28c-12.8 12.8-30.08 20.48-48.64 20.48-19.2 0-36.48-7.68-48.64-20.48-12.8-12.8-20.48-30.08-20.48-49.28s7.68-36.48 20.48-48.64c12.8-12.8 30.08-20.48 48.64-20.48 19.2 0 36.48 7.68 48.64 20.48 12.8 12.8 20.48 30.08 20.48 48.64 0 19.2-7.68 36.48-20.48 49.28zM501.12 686.72h486.4v-381.44H1024v-113.92h-36.48v-0.64H908.8c-6.4-26.24-19.2-49.28-37.76-67.84-25.6-25.6-60.8-41.6-100.48-41.6-39.04 0-74.24 16-100.48 41.6-18.56 18.56-31.36 41.6-37.76 67.84h-131.2v496z m0 0"  horiz-adv-x="1024" />

    
    <glyph glyph-name="yingjijigou" unicode="&#59022;" d="M783.660715 246.200783a187.097716 187.097716 0 1 1 187.097716-186.891888 186.891888 186.891888 0 0 1-187.097716 186.891888z m82.331228-188.332684l-109.088877-121.850218a8.438951 8.438951 0 0 0-14.613793 7.821467l20.582807 80.067119a8.438951 8.438951 0 0 1-6.38067 10.497232l-51.868674 12.143856a8.438951 8.438951 0 0 0-4.528218 13.996309l109.91219 121.850217a8.438951 8.438951 0 0 0 14.613793-7.821467l-20.582807-80.067119a8.644779 8.644779 0 0 1 6.38067-10.497231l51.868674-12.143856a8.438951 8.438951 0 0 0 3.704905-13.996309zM563.218852 71.452751a212.826224 212.826224 0 0 0 14.613793 74.509762V562.970183h53.515298v-335.293926a213.237881 213.237881 0 0 0 139.139775 57.837687V562.970183h114.028751v75.744729h-117.939484a301.743951 301.743951 0 0 1-596.901403 0H51.941926v-75.744729h114.234579V71.452751H51.941926v-93.034287h532.888873A213.855365 213.855365 0 0 0 563.218852 71.452751z m-203.563961 0h-54.338611V562.970183h54.338611z"  horiz-adv-x="1024" />

    
    <glyph glyph-name="baopoqiye" unicode="&#59021;" d="M912.604692 141.711272l-89.817477-43.743959v106.642077c0 11.13012-9.57708 17.601119-17.34228 11.13012l-63.156958-51.767999-30.025439 189.470875a10.61244 10.61244 0 0 1-20.707199 3.36492l-63.156959-170.834395-97.841517 85.934877c-9.57708 6.21216-19.154159-3.10608-17.601119-14.236199l30.025439-164.363396-77.651998 9.57708c-9.57708-1.55304-11.13012-15.78924-4.65912-22.001399l54.356399-93.441237-34.684559-32.613839a10.3536 10.3536 0 0 1 6.98868-17.85996h73.510557l28.21356 25.883999-31.578479 79.205038 59.274358-4.91796-28.731239 105.089037 67.557238-47.108879 36.237599 87.487918 18.895319-123.207837 62.639278 51.767999-8.28288-83.346478 66.780718 13.71852-68.333758-103.535997h73.251718l58.238999 30.025439a9.31824 9.31824 0 0 1-6.98868 16.04808l-42.967439-3.62376 77.651998 140.032436c4.14144 6.471-0.51768 22.777919-10.09476 21.224879zM445.139666-128h473.936026a15.5304 15.5304 0 0 1 14.236199 15.78924v6.212159a14.49504 14.49504 0 0 1-14.236199 15.78924H445.139666a15.5304 15.5304 0 0 1-14.2362-15.78924v-6.470999a15.5304 15.5304 0 0 1 14.2362-15.5304zM89.752356-69.243322a58.756678 58.756678 0 0 1 58.756679-58.756678h222.861233l-25.883999 19.154159 109.230477 115.183797-65.745359 120.619437 112.854237 23.295599-12.683159 178.858435 130.973036-69.886798 33.649199 86.452557v491.795986A58.497838 58.497838 0 0 1 579.736462 893.90029L132.978635 770.433614A58.756678 58.756678 0 0 1 89.752356 713.747655m147.279956-69.110278l258.839992 70.663318a38.049479 38.049479 0 0 0 19.15416-72.475198l-258.839993-70.663318a38.049479 38.049479 0 0 0-19.154159 72.475198z m211.731114-82.828797a38.049479 38.049479 0 1 0 20.189519-72.475198l-212.766474-60.827398a38.075363 38.075363 0 0 0-19.930679 73.510557zM792.502936 230.493389l-63.415799 196.718395-46.850038-34.166879V774.057374l96.029637-55.909439a27.954719 27.954719 0 0 0 14.2362-24.589799z"  horiz-adv-x="1024" />

    
    <glyph glyph-name="zhayaocangku" unicode="&#59020;" d="M410.79047 286.08000000000004h195.84v-103.893333H410.79047z m-10.24 0h-21.333333A52.053333 52.053333 0 0 1 327.59047 234.66666699999996a52.053333 52.053333 0 0 1 52.053334-51.84h21.333333z m242.773334 0h-25.173334v-103.893333h26.026667a52.053333 52.053333 0 1 1 0 103.893333zM410.79047 170.66666699999996h195.84v-104.106667H410.79047z m-10.24 0h-21.333333a52.053333 52.053333 0 0 1-52.053333-52.053334 52.266667 52.266667 0 0 1 52.053333-51.84h21.333333z m242.773334 0h-25.173334v-103.893334h26.026667a52.053333 52.053333 0 1 1 0 103.893334z m-232.533334-116.48h195.84v-103.893334H410.79047z m-10.24 0h-21.333333a52.053333 52.053333 0 0 1-52.053333-52.053334 52.053333 52.053333 0 0 1 52.053333-52.053333h21.333333z m242.773334 0h-25.173334v-104.106667h26.026667a52.053333 52.053333 0 0 1 52.053333 52.053333 52.053333 52.053333 0 0 1-52.053333 52.053334zM892.283804 699.52L536.657137 891.733333a78.293333 78.293333 0 0 1-50.346667 0l-355.626666-192A77.866667 77.866667 0 0 1 82.257137 651.093333v-682.666666C82.257137-94.29333299999996 115.537137-128 156.71047-128s95.786667 33.28 95.786667 74.453333V292.266667a74.24 74.24 0 0 0 74.026667 74.453333h370.346666a74.24 74.24 0 0 0 74.24-74.24v-346.24c0-40.96 54.826667-74.24 96-74.026667s74.24 33.28 74.453334 95.573334v682.666666a77.866667 77.866667 0 0 1-49.28 49.066667zM594.683804 512h-170.666667a49.493333 49.493333 0 1 0-12.586667 98.133333 42.666667 42.666667 0 0 0 12.586667 0h170.666667a49.493333 49.493333 0 1 0 12.373333-98.133333 40.106667 40.106667 0 0 0-12.373333 0z"  horiz-adv-x="1024" />

    
    <glyph glyph-name="baopogongcheng" unicode="&#59019;" d="M998.085448 430.79668l-186.265559-90.280511v223.221043c0 22.818151-19.593847 35.96339-35.963391 22.818152l-130.956346-105.409938L582.894307 873.518417a21.578034 21.578034 0 0 1-42.411998 6.448608l-130.708323-352.937273-202.883126 173.616367c-19.593847 13.145239-39.187694-6.448608-35.963391-29.266759l62.253869-340.536103-163.199385 19.593847c-20.337917-3.224304-22.818151-31.995016-9.672912-45.636302l113.346686-193.210215-71.926781-67.46236a21.578034 21.578034 0 0 1 14.633379-37.203507h152.038334l58.781541 55.557237-65.230149 163.943456 122.52355-10.168959-59.773635 217.516506 139.885188-97.721212 74.407014 181.057069 39.187695-254.968037 131.204369 105.905984-17.60966-173.616367 138.397047 28.770712-141.621351-216.772436h151.790309l120.291341 62.253869a18.849777 18.849777 0 0 1-13.88931 33.235133l-89.040394-6.696631 159.231011 289.69131c10.416982 16.369543 0 49.10863-18.849777 45.884326zM30.298212-128h981.180499a32.24304 32.24304 0 0 1 30.258853 33.73118v12.897216a30.258853 30.258853 0 0 1-29.266759 32.739086H30.298212a32.24304 32.24304 0 0 1-30.258853-32.739086v-12.897216a32.24304 32.24304 0 0 1 30.258853-33.73118z"  horiz-adv-x="1043" />

    
    <glyph glyph-name="churukou" unicode="&#58880;" d="M338.19277301 106.10339018000002L199.14712422 175.82106867000005v-69.7176785c-17.38070627 0-34.76141255-17.42958952-34.76141255-34.85850012S181.76641794 36.38571166999998 199.14712422 36.38571166999998h625.70541958c17.38070627 0 34.76141255 17.42958952 34.76141185 34.85917837s-17.38070627 34.85849944-34.76141185 34.85850013H338.19277301zM860.58890443 297.07186135999996c0 20.88604129-13.91814343 34.81029512-34.79535857 34.8102958H804.91904645l-31.31650199 76.58237837c-10.43860791 27.84782873-34.79535857 45.25297663-66.11050335 45.25297664H523.08003366c-27.83492899 0-55.67257439-17.4051479-66.10982374-45.25297664l-31.31582305-76.58237837h-17.39700069c-20.87721514 0-34.79535857-13.92493276-34.79535855-34.81029579 0-10.44268151 6.95907172-17.4051479 17.39835786-17.40514723h31.31514412c-6.95907172-10.44268151-13.91814343-20.88604129-13.91814343-34.81029579V140.42553232c0-17.4051479 17.39700068-34.81029512 34.79468032-34.81029581 17.39835856 0 34.79535857 17.4051479 34.79535856 34.81029581v17.40514722h278.35743978v-17.40514722c0-17.4051479 17.39767962-34.81029512 34.79535858-34.81029581s34.79535857 17.4051479 34.79535924 34.81029581V244.85641835c0 13.92493276-6.95907172 24.36693534-13.91814342 34.81029579h31.31514411c10.43792898 0 17.39700068 6.96246638 17.39700001 17.40514722zM488.2846751 349.28730439000003l10.43792829 31.3287228c6.95907172 24.36693534 27.83628684 41.77276218 52.19303888 41.77276218h132.21964749c20.87653621 0 41.75307309-13.92493276 48.71214481-34.8102958l10.43928686-34.81029513c3.47885725-13.92493276-6.95907172-24.36693534-20.87721584-24.36693534-24.35675135 3.48089408-66.10914482 6.96178745-107.86425471 6.96178745-41.75239416 0-83.50750338-3.48089408-107.8622179-6.96178745-10.43928684-3.48089408-20.87721514 6.96178745-17.39835788 20.88604129z m-10.43860792-139.24050223c-20.87721514 0-34.79535857 13.92357489-34.79535856 34.80893725s13.91814343 34.81097405 34.79535856 34.81097473c20.87653621 0 34.79467963-13.92493276 34.79468033-34.81029579s-13.91814343-34.80961619-34.79535925-34.80961619z m191.37107916 34.80893725H564.83310676c-10.43792898 0-17.39700068 6.96314531-17.39700069 17.40582683s6.95907172 17.4051479 17.39700069 17.4051479h104.38471852c10.43860791 0 17.39767962-6.96178745 17.39767962-17.4051479s-6.95907172-17.4051479-17.39767962-17.40514789z m86.98636064-34.80893725c-20.87585727 0-34.79535857 13.92357489-34.79535925 34.80893725s13.91814343 34.81097405 34.79535925 34.81097473c20.87653621 0 34.79535857-13.92493276 34.79535855-34.81029579s-13.91814343-34.80961619-34.79535855-34.80961619z m-417.53751755 0L199.48930634 279.66671413999995v-69.61991198L338.66734731 140.42553232V210.04680215999997z m0 104.4302071L199.48930634 384.09760018V314.47700926000005l139.17871991-69.62059091V314.47700926000005zM338.66802625 418.95134708V481.56262516l497.56344791 180.87476252c13.9195013 6.95567705 24.35743028 20.86906792 24.35743027 34.78177987 0 24.34928306-24.3560724 41.74085228-45.23328755 31.30563905L307.35288212 547.65004476c-10.43792898 6.95771384-24.3560724 10.43521324-38.27421583 10.43521256-38.27489477 0-69.59071781-31.30563905-69.59071782-69.5669551v-69.56763408L338.66802625 349.38439196V418.95134708z m-69.59071782 34.78381738c-20.87585727 0-34.79467963 13.91339089-34.79467964 34.78381668 0 20.86974686 13.91814343 34.78313776 34.79535856 34.78313843 20.87585727 0 34.79535857-13.91339089 34.79535926-34.78313843 0-20.87042579-13.91814343-34.78381669-34.79535926-34.78381668z"  horiz-adv-x="1025" />

    
    <glyph glyph-name="baojing" unicode="&#58929;" d="M516.94408905 646.02368438c14.83154297 0 27.19067931 12.35986054 27.19067932 27.19140351V727.59717071C544.13476837 742.42871367 531.77563202 754.78857422 516.94408905 754.78857422S489.75268555 742.42871367 489.75268555 727.59717071v-54.38208282c0-14.83154297 12.35986054-27.19140351 27.1914035-27.19140351z m205.16919494-54.38208282l37.07885743 37.07885742c9.88817812 9.88745392 9.88817812 27.19140351 0 37.07885743-9.88745392 9.88745392-27.19067931 9.88745392-37.07885743 0l-37.07885742-37.07885743c-9.88745392-9.88745392-9.88745392-27.19140351 0-37.07885742 9.88817812-12.35986054 27.19140351-12.35986054 37.07885742 0z m-407.86743164 0c9.88817812-9.88745392 27.19140351-9.88745392 37.07885742 0 12.35986054 9.88745392 12.35986054 27.19140351 2.47240664 37.07885742l-39.55126406 37.07885743c-9.88745392 9.88745392-27.19067931 9.88745392-37.07885742 0-9.88745392-9.88745392-9.88745392-27.19140351 0-37.07885743l37.07885742-37.07885742zM175.81860077 416.13476837h54.38208282c14.83154297 0 27.19140351 12.35986054 27.19140351 27.1914035 0 14.83154297-12.35986054 27.19140351-27.19140351 27.19140351H175.81860077c-14.83154297 0-27.19140351-12.35986054-27.1914035-27.19140351 0-14.83154297 12.35986054-27.19140351 27.1914035-27.1914035z m625.39648712 0h54.38208282c14.83154297 0 27.19140351 12.35986054 27.19140351 27.1914035 0 14.83154297-12.35986054 27.19140351-27.19140351 27.19140351H801.21508789c-14.83154297 0-27.19140351-12.35986054-27.19140351-27.19140351 0-14.83154297 12.35986054-27.19140351 27.19140351-27.1914035z m54.38208282-313.93408478H734.47314453V374.11254608c0 118.65234375-98.87671173 217.52905548-217.52905548 217.52905548S299.41430938 492.76488983 299.41430938 374.11254608V102.20068359000004H175.81860077c-14.83154297 0-27.19140351-12.35986054-27.1914035-27.1914035s12.35986054-27.19067931 27.1914035-27.19067932h679.77856994c14.83154297 0 27.19140351 12.35913634 27.19140351 27.19067932s-12.35986054 27.19140351-27.19140351 27.1914035zM516.94408905 430.96631134L600.98925781 287.5949707l-86.51757538-9.88745391 14.83154297-108.76488984-96.4050293 140.89965821 88.98925782 12.35986053-4.94336487 108.76416565z"  horiz-adv-x="1024" />

    
    <glyph glyph-name="shenhe" unicode="&#58930;" d="M187.9628307-43.14066994999996l-29.45851292 0c-16.27493515 0-29.45721837-13.18228322-29.45721837-29.45721836l0-29.45851292c0-16.27493515 13.18228322-29.45721837 29.45721837-29.45721836L850.7677203-131.51361958999996c16.27493515 0 29.45721837 13.18228322 29.45721837 29.45721836l0 29.45851292c0 16.27493515-13.18228322 29.45721837-29.45721837 29.45721836l-29.45851292 0c0 262.17636347-208.98896403 272.39803765-220.93366866 427.14066995 11.94470463 154.7426323 220.93366866 164.96430649 220.93366866 427.14066995L850.7677203 811.14066995c16.27493515 0 29.45721837 13.18228322 29.45721837 29.45721836l0 29.45851292c0 16.27493515-13.18228322 29.45721837-29.45721837 29.45721836l-692.26210798 0c-16.27493515 0-29.45721837-13.18228322-29.45721837-29.45721836L129.04839395 840.59659378c0-16.27493515 13.18228322-29.45721837 29.45721837-29.45721837L187.96412524 811.13937542c0-262.17636347 208.99025857-272.39803765 220.9349632-427.14066996-11.94599917-154.7426323-220.9349632-164.96430649-220.9349632-427.14066994z m89.30113359 829.83010102c-6.78985324 9.72198242 0.26538035 23.08161739 12.13759082 23.08161738L722.16828839 809.77104844c11.39970404 0 18.60251497-12.49099979 12.72531122-22.25570195-57.60565855-95.65084382-127.75798203-167.43946365-220.37442814-237.65133591-5.67007763-4.30175067-13.81660697-3.86031312-19.08926134 0.92688942-94.04432181 85.53014361-160.83990755 153.80020844-218.16594584 235.89853107zM505.79916169 312.09357716L662.86937378 155.55283119s-78.9474165 32.10843274-143.16557653 32.10843278-119.08457561-45.4978421-167.26211192-45.4978421S505.79916169 312.09357716 505.79916169 312.09357716z"  horiz-adv-x="1024" />

    
    <glyph glyph-name="hangye1" unicode="&#58891;" d="M397.519872 828.1088A234.1888 234.1888 0 0 1 233.065472 896C171.625472 896 111.619072 871.2192 66.767872 826.1632c-43.008-43.52-67.072-102.1952-66.7648-163.328a230.0928 230.0928 0 0 1 68.4032-164.864l0.2048-0.1024a230.7072 230.7072 0 0 1 164.4544-68.1984h196.9152a36.1472 36.1472 0 0 1 36.1472 36.0448V662.8352c0 61.952-24.6784 121.344-68.608 165.2736z m228.9664 0A233.7792 233.7792 0 0 0 790.940672 896c61.44 0 121.4464-24.7808 166.2976-69.8368 43.008-43.52 67.072-102.1952 66.7648-163.328a230.0928 230.0928 0 0 0-68.4032-164.864l-0.2048-0.1024a230.7072 230.7072 0 0 0-164.4544-68.1984H594.025472a36.1472 36.1472 0 0 0-36.1472 36.0448V662.8352c0 61.952 24.6784 121.344 68.608 165.2736zM397.519872-60.1088A233.7792 233.7792 0 0 0 233.065472-128c-61.44 0-121.4464 24.7808-166.2976 69.8368A230.7072 230.7072 0 0 0 0.003072 105.1648a230.0928 230.0928 0 0 0 68.4032 164.864l0.2048 0.1024a230.7072 230.7072 0 0 0 164.4544 68.1984h196.9152c19.968 0 36.1472-16.2816 36.1472-36.0448v-197.12c0-61.952-24.6784-121.344-68.608-165.2736z m228.9664 0A233.7792 233.7792 0 0 1 790.940672-128c61.44 0 121.4464 24.7808 166.2976 69.8368 43.008 43.52 67.072 102.1952 66.7648 163.328a230.0928 230.0928 0 0 1-68.4032 164.864l-0.2048 0.1024a230.7072 230.7072 0 0 1-164.4544 68.1984H594.025472a36.1472 36.1472 0 0 1-36.1472-36.0448v-197.12c0-61.952 24.6784-121.344 68.608-165.2736z"  horiz-adv-x="1024" />

    
    <glyph glyph-name="shenhezhong" unicode="&#59047;" d="M124.68232372 911.68514154m22.72424579 0l440.40794968 0q22.72424581 0 22.7242458-22.72424583l0 0q0-22.72424581-22.7242458-22.7242458l-440.40794968 0q-22.72424581 0-22.72424579 22.7242458l0 0q0 22.72424581 22.72424579 22.72424583ZM701.63684774 911.68514154m22.7242458 0l136.74767388 0q22.72424581 0 22.72424579-22.72424583l0 0q0-22.72424581-22.72424579-22.7242458l-136.74767388 0q-22.72424581 0-22.7242458 22.7242458l0 0q0 22.72424581 22.7242458 22.72424583ZM853.86918467-44.74417748999997H185.41437888a22.92534531 22.92534531 0 0 0-22.72424581 22.72424581c0 175.35878179 150.02024223 326.18342208 254.59199282 409.84082255-104.5717506 83.8585-254.59199282 234.68314029-254.59199282 410.0419221a22.92534531 22.92534531 0 0 0 22.72424581 22.72424581H853.86918467a22.72424581 22.72424581 0 0 0 22.72424582-22.72424581c0-175.35878179-150.02024223-326.18342208-254.39089331-410.0419221C726.17098922 303.56019185 876.19123143 153.33885010999995 876.19123143-22.019931680000013A22.72424581 22.72424581 0 0 0 853.86918467-44.74417748999997z m-643.51846528 45.44849161h619.38652284c-13.67476739 160.87961633-166.10820385 298.6327878-258.81508275 369.01761992a22.92534531 22.92534531 0 0 0 0 36.39901319c92.70687891 70.18373262 245.14031536 209.14350122 258.81508275 368.81652043H210.35071939c13.47366786-159.6730192 166.10820385-298.6327878 258.61398323-368.81652043a22.92534531 22.92534531 0 0 0 0-36.39901319c-93.51127698-70.38483214-246.14581297-209.14350122-258.61398323-369.01761992zM124.68232372-90.39376861000005m22.72424579 0l744.06822548 0q22.72424581 0 22.72424581-22.72424582l0 0q0-22.72424581-22.72424581-22.7242458l-744.06822548 0q-22.72424581 0-22.72424579 22.7242458l0 0q0 22.72424581 22.72424579 22.72424582ZM491.89004797 436.28587532l28.55613189-21.71874822 28.55613188 21.71874822a934.71057081 934.71057081 0 0 1 129.70919066 118.64871702H361.17535969a958.23921469 958.23921469 0 0 1 130.71468828-118.64871702zM547.99681417 339.55700598l-28.55613192 21.71874821L491.89004797 339.55700598c-63.94964749-48.66608394-202.10501799-166.51040289-236.69413553-301.64928057h529.49503721c-34.58911749 135.13887771-172.14118945 252.98319666-236.69413548 301.64928057zM656.18835613 888.96089571m-22.72424582 0a22.72424581 22.72424581 0 1 1 45.44849161 0 22.72424581 22.72424581 0 1 1-45.44849161 0Z"  horiz-adv-x="1024" />

    
    <glyph glyph-name="shipinzhuisu1" unicode="&#58928;" d="M860.16 584.192c-35.84 61.44-85.504 109.568-146.944 145.408S584.704 782.848 512 782.848 371.712 765.44 309.76 729.6c-61.44-35.84-110.08-83.456-145.92-145.408C128 522.752 109.568 456.704 109.568 384S128 245.248 163.84 183.808 248.32 74.24 309.76 38.4 439.296-14.848 512-14.848 651.776 2.56 713.216 38.4 824.32 121.856 860.16 183.808C896 245.248 914.432 311.296 914.432 384S896 522.752 860.16 584.192zM504.832 131.584c-103.936 0-196.096 62.464-234.496 159.232-8.704 22.528 2.048 47.616 24.576 56.32s47.616-2.048 56.32-24.576c25.088-63.488 85.504-103.936 153.6-103.936 91.136 0 165.376 74.24 165.376 165.376s-74.24 165.376-165.376 165.376c-29.696 0-58.368-7.68-83.968-22.528-20.48-12.288-47.616-5.12-59.392 15.36-12.288 20.48-5.12 47.616 15.36 59.392 38.4 23.04 82.944 34.816 128 34.816 139.264 0 252.416-113.152 252.416-252.416S644.096 131.584 504.832 131.584z m-68.608 190.464v135.68c0 13.312 14.336 21.504 26.112 14.848l117.248-67.584c11.776-6.656 11.776-23.552 0-30.208L462.336 307.2c-11.776-7.168-26.112 1.536-26.112 14.848z"  horiz-adv-x="1024" />

    
    <glyph glyph-name="yuanliebiao" unicode="&#58925;" d="M212.793297 194.305976a23.008953 23.008953 0 1 1 0-46.017905h230.044366a23.008953 23.008953 0 1 1 0 46.017905H212.793297z m299.071223 115.044763c0 12.712503-10.29645 23.008953-23.008952 23.008952H212.793297a23.008953 23.008953 0 1 1 0-46.017905H488.855568c12.712503 0 23.008953 10.29645 23.008952 23.008953zM51.753208 10.256935V654.439868a92.03581 92.03581 0 0 0 92.013231 92.01323h736.196163a92.03581 92.03581 0 0 0 92.03581-92.01323v-514.957972l45.995326-78.171731V700.457773a92.03581 92.03581 0 0 1-92.035811 92.01323H97.771114A92.05839 92.05839 0 0 1 5.735303 700.457773v-736.196163a92.03581 92.03581 0 0 1 92.035811-92.013231h166.256052l27.050761 46.017905H143.766439a91.99065 91.99065 0 0 0-92.013231 91.990651z m782.214069 437.124939a23.031533 23.031533 0 0 1-23.031533 23.008953H212.793297a23.008953 23.008953 0 1 1 0-46.017905h598.142447a23.031533 23.031533 0 0 1 23.031533 23.008952z m-138.279515-23.596031L373.065667-128h645.17645L695.687762 423.785843z m23.212172-459.546813h-45.995325v46.017905h45.995325v-46.017905z m-45.995325 92.05839v184.026461h45.995325v-184.026461h-45.995325z m138.031135 552.124543H212.793297a23.008953 23.008953 0 1 1 0-46.017906h598.142447a23.031533 23.031533 0 1 1 0 46.017906z"  horiz-adv-x="1024" />

    
    <glyph glyph-name="jiankong" unicode="&#59081;" d="M680.32 414.57c0 92.75-75.47 168.22-168.22 168.22s-168.22-75.47-168.22-168.22c0-44.95 17.49-87.2 49.27-118.95 31.77-31.78 74.01-49.27 118.94-49.27 92.76-0.01 168.23 75.46 168.23 168.22z m-271.96 0c0 57.21 46.53 103.74 103.74 103.74s103.74-46.53 103.74-103.74-46.53-103.75-103.74-103.75c-27.71 0-53.76 10.79-73.36 30.39-19.59 19.58-30.38 45.63-30.38 73.36zM763.02 228.51c65.28 66.35 100.77 154.14 99.93 246.93v5.37C861.39 674.27 702.41 830.73 509.28 828.86c-193.4-1.55-349.51-160.15-348.04-353.54v-5.87c1.38-154.14 103.51-284.32 243.02-328.61l-51.45-137.48H252.48c-17.81 0-32.24-14.43-32.24-32.24s14.43-32.24 32.24-32.24h122.63c0.02 0 0.04-0.01 0.06-0.01 0.02 0 0.05 0.01 0.07 0.01h273.71c0.02 0 0.05-0.01 0.07-0.01 0.02 0 0.04 0.01 0.06 0.01h122.64c17.81 0 32.24 14.43 32.24 32.24s-14.43 32.24-32.24 32.24H671.38L620 140.69c53.55 16.88 102.52 46.66 143.02 87.82z m-537.3 241.24v5.96c-1.26 157.9 126.17 287.4 284.09 288.67 0.78 0.01 1.54 0.01 2.32 0.01 156.84 0 285.09-126.96 286.35-283.83v-5.4c0.68-75.83-28.23-147.36-81.42-201.42-53.18-54.05-124.23-84.12-199.84-84.67h-5.92c-0.69-0.01-1.39-0.01-2.08-0.01-155.12-0.01-282.11 125.61-283.5 280.69z m376.82-466.39H421.66l46.35 123.86c13.47-1.6 27.1-2.65 40.98-2.65 0.84 0 1.71 0 2.55 0.01h5.92c13.07 0.09 25.98 1.08 38.77 2.59l46.31-123.81zM512.1 620.52c27.65 0 50.07 22.42 50.07 50.07s-22.42 50.07-50.07 50.07a56.94 56.94 0 0 1-25.03-6.83 50.655 50.655 0 0 1-25.04-43.24c0-27.65 22.42-50.07 50.07-50.07z"  horiz-adv-x="1024" />

    
    <glyph glyph-name="yingjiyuan" unicode="&#58935;" d="M611.648 593.376c0 17.856-14.464 34.656-32.32 34.656H191.36c-17.888 0-32.32-16.832-32.32-34.656 0-17.856 14.464-34.688 32.32-34.688h387.968c17.856 0 32.32 16.832 32.32 34.688zM191.36 426.304c-17.888 0-32.32-17.344-32.32-35.2 0-17.888 14.464-35.232 32.32-35.232h258.656c17.856 0 32.352 17.344 32.352 35.232 0 17.856-14.496 35.2-32.352 35.2H191.36z m193.984-203.904H191.36c-17.888 0-32.32-17.344-32.32-35.2 0-17.888 14.464-35.264 32.32-35.264h193.984c17.888 0 32.352 17.376 32.352 35.264 0 17.856-14.464 35.2-32.352 35.2zM332.128 9.408H123.616c-32.544 0-58.976 25.216-58.976 56.32V728.928c0 31.072 26.464 56.384 58.976 56.384h593.376c32.416 0 58.912-25.312 58.912-56.384V591.36a32.32 32.32 0 1 1 64.672-0.064V728.928c0 66.72-55.392 121.024-123.552 121.024H123.616c-68.192 0-123.648-54.272-123.648-121.024v-663.136c0-66.752 55.456-121.088 123.648-121.088h208.512a32.32 32.32 0 1 1 0 64.704zM743.36 113.024h-34.88a8.96 8.96 0 0 1-7.072-3.68 13.664 13.664 0 0 1-3.008-8.832v-20.8c0-3.2 0.992-6.336 3.008-8.8 1.92-2.4 4.512-3.616 7.072-3.616h34.88c2.56 0 5.152 1.216 7.104 3.616a13.856 13.856 0 0 1 2.976 8.8v20.8a13.6 13.6 0 0 1-2.976 8.832 9.088 9.088 0 0 1-7.104 3.68z m-41.728 35.232c1.92-1.664 4.512-2.464 7.072-2.464l34.624-0.16a11.04 11.04 0 0 1 7.168 2.432 7.616 7.616 0 0 1 2.976 5.92l-0.064 59.648v91.68a7.456 7.456 0 0 1-2.944 5.856 10.656 10.656 0 0 1-7.136 2.464H708.48a10.624 10.624 0 0 1-7.104-2.464 7.36 7.36 0 0 1-2.976-5.856v-92.384l0.288-58.848c0.032-2.144 0.96-4.256 2.944-5.824zM1015.712 85.76l-222.656 385.76c-27.104 47.168-103.136 47.168-130.272 0L440.032 85.76h-0.064a74.624 74.624 0 0 1 0.064-75.232 74.56 74.56 0 0 1 65.184-37.664h445.312c27.264 0 51.68 14.112 65.216 37.696a74.336 74.336 0 0 1-0.032 75.2z m-55.936-42.88a10.24 10.24 0 0 0-9.248-5.312H505.216a10.208 10.208 0 0 0-9.152 5.312 10.112 10.112 0 0 0 0 10.56l222.624 385.728c5.44 9.248 13.024 9.248 18.432 0l222.656-385.728a10.24 10.24 0 0 0 0-10.56z"  horiz-adv-x="1025" />

    
    <glyph glyph-name="shishishipin" unicode="&#58926;" d="M637.44 79.36C716.8 49.92 766.72-2.56 766.72-64H247.04c0 61.44 53.76 115.2 135.68 143.36-149.76 53.76-257.28 197.12-257.28 366.08C125.44 660.48 296.96 832 512 832s386.56-171.52 386.56-386.56c0-168.96-107.52-312.32-261.12-366.08zM519.68 563.2c-111.36 0-204.8-93.44-204.8-204.8s93.44-204.8 204.8-204.8c115.2 0 204.8 93.44 204.8 204.8s-90.88 204.8-204.8 204.8z m0-314.88c-53.76 0-99.84 43.52-99.84 99.84 0 53.76 46.08 99.84 99.84 99.84s99.84-43.52 99.84-99.84c0-53.76-43.52-99.84-99.84-99.84z"  horiz-adv-x="1024" />

    
    <glyph glyph-name="xiangqing" unicode="&#58927;" d="M716.99960937 834h-27.9993164v-150.00029297a24.99960938 24.99960938 0 0 1 23.99941406-24.99960937h181.00019531v28.99951171zM641.99990234 683.99970703V834H224.50097656a100.00019531 100.00019531 0 0 1-94.5-100.00019531v-699.99960938A100.00019531 100.00019531 0 0 1 224.50009766-66H799.49902344a100.00019531 100.00019531 0 0 1 94.5 100.00019531V609H712.00039063a73.50029297 73.50029297 0 0 0-70.00048829 74.99970703zM770.00029297 105.50097656000003H253.49960938a24.00029297 24.00029297 0 0 0-23.49931641 24.99960938 24.50039062 24.50039062 0 0 0 23.49931641 25.00048828h516.50068359a24.50039062 24.50039062 0 0 0 23.49931641-25.00048828 24.00029297 24.00029297 0 0 0-23.49931641-24.99960938z m0 132.49951172H253.49960938a24.99960938 24.99960938 0 0 0 0 50.00097656h516.50068359a24.99960938 24.99960938 0 0 0 0-50.00097656z m0 133.00048828H253.49960938a24.00029297 24.00029297 0 0 0-23.49931641 24.99960938 24.50039062 24.50039062 0 0 0 23.49931641 25.00048828h516.50068359a24.50039062 24.50039062 0 0 0 23.49931641-25.00048828 24.00029297 24.00029297 0 0 0-23.49931641-24.99960938z m23.49931641 157.5a24.00029297 24.00029297 0 0 0-23.49931641-25.00048828H253.49960938a24.99960938 24.99960938 0 0 0 0 50.00097656h516.50068359a24.00029297 24.00029297 0 0 0 23.49931641-25.00048828z"  horiz-adv-x="1024" />

    
    <glyph glyph-name="yingjiguanli-copy" unicode="&#59250;" d="M987.18875244 585.93416195c-11.94427312 20.28455168-26.94020447 37.54506198-44.89113517 51.68487202L588.52619842 857.07606597c-21.92775227 14.19504366-46.60337778 21.26494868-73.95783449 21.26494869-27.43730717 0-52.03008222-7.13894705-73.95783448-21.27875709L86.83911058 637.60522557c-21.27875708-14.13981003-38.38737488-31.3865119-51.25681135-51.684872-12.86943647-20.2983601-19.3041547-43.05461686-19.3041547-68.15830304v-488.09961412c1.27037355-39.947725 15.13401543-73.10171317 41.57711718-99.54481494 26.37405971-26.44310176 59.59708993-40.29293521 99.54481493-41.57711719h707.54283773c39.947725 1.27037355 73.10171317 15.13401543 99.54481493 41.57711719 26.44310176 26.44310176 40.29293521 59.59708993 41.57711719 99.54481494V517.77585893c-0.70422882 25.1589198-6.93182094 47.85994293-18.87609405 68.15830302zM727.94969632 371.98668482999994L492.41967713 36.746149830000036c-12.49660945-17.7990382-40.48625294-7.00086297-37.79361332 14.58167909l23.75046215 190.266057c1.56035013 12.51041787-8.22981131 23.52952763-20.83688802 23.46048558l-157.00160158-0.91135493c-17.26051028-0.09665887-27.17494739 19.6079397-16.80483283 33.4163479l254.86179072 339.24497341c12.73135238 16.9567253 39.71298207 6.31044256 37.44840312-14.77499681l-20.69880393-192.58586958c-1.31179878-12.2480581 8.20219449-22.9633829 20.53310304-23.10146697l135.2395502-1.47749969c16.79102442-0.19331772 26.49833539-19.1246454 16.83244964-32.87782z"  horiz-adv-x="1024" />

    
    <glyph glyph-name="huodanguanli" unicode="&#58923;" d="M340.39 795.87h290.3q6.19 0 6.19-6.19v-100.77q0-6.19-6.19-6.19h-290.3q-6.19 0-6.19 6.19V789.68q0 6.19 6.19 6.19zM413 2.2h-44.42a6.84 6.84 0 0 0-6.86 6.82v82.34a6.77 6.77 0 0 0 0.56 2.7l75.14 136.8a6.86 6.86 0 0 0 6.3 4.11h79.86a6.83 6.83 0 0 1 6.86 6.81v77.9a6.7 6.7 0 0 0 6.71 6.67H810.5V700.11a21.74 21.74 0 0 1-21.57 21.78H672.79v-53.67a21.74 21.74 0 0 0-21.57-21.78H319.86a21.74 21.74 0 0 0-21.57 21.78v53.67H182.16a21.74 21.74 0 0 1-21.58-21.78V12a21.74 21.74 0 0 1 21.58-21.78h244.06c-3.41 7.32-9.64 11.98-13.22 11.98zM281 512.7a10.09 10.09 0 0 0 10 10.11h389a10.09 10.09 0 0 0 10-10.11v-53.91a10.09 10.09 0 0 0-10-10.11H291.07a10.09 10.09 0 0 0-10 10.11z m0-226.78v53.92a10.09 10.09 0 0 0 10 10.11h189.53a10.1 10.1 0 0 0 10-10.11v-53.92a10.1 10.1 0 0 0-10-10.11H291.07a10.09 10.09 0 0 0-10.01 10.11zM466.51 199.7l-58.68-110.25a5.4 5.4 0 0 1-0.5-2.27v-54.26a5.88 5.88 0 0 1 6-5.73h49.87a5.92 5.92 0 0 0 6-5.24c2.79-30.49 29.73-54.42 62.55-54.42s59.76 23.93 62.54 54.42a5.92 5.92 0 0 0 6 5.24H681a5.93 5.93 0 0 0 6-5.24c2.78-30.49 29.72-54.42 62.54-54.42s59.76 23.93 62.55 54.42a5.92 5.92 0 0 0 6 5.24h37.31a5.89 5.89 0 0 1 6 5.73V277.7a5.9 5.9 0 0 1-6 5.74h-284a5.78 5.78 0 0 1-5.91-5.62v-68.92a5.89 5.89 0 0 0-6-5.74h-87.4a6.07 6.07 0 0 1-5.58-3.46z m251.22-173.49c-0.57 17.24 14.26 31.34 32.41 30.79 16.43-0.5 29.82-13.22 30.35-28.84 0.58-17.24-14.26-31.34-32.41-30.79-16.43 0.5-29.82 13.22-30.35 28.84z m-217.35 0c-0.58 17.24 14.26 31.34 32.41 30.79 16.43-0.5 29.82-13.22 30.34-28.84 0.58-17.24-14.25-31.34-32.4-30.79-16.44 0.5-29.82 13.22-30.35 28.84z m59.26 62.16H456.75a5.76 5.76 0 0 0-5.55 8l38.59 70.08a6 6 0 0 0 5.55 3.49h64.31a5.89 5.89 0 0 0 6-5.74v-70.1a5.88 5.88 0 0 0-6.01-5.73z"  horiz-adv-x="1024" />

    
    <glyph glyph-name="yingjiguanli" unicode="&#58924;" d="M856.13 530.24c-8.65 14.69-19.51 27.19-32.51 37.43L567.42 726.6c-15.88 10.28-33.75 15.4-53.56 15.4-19.87 0-37.68-5.17-53.56-15.41L204.1 567.66c-15.41-10.24-27.8-22.73-37.12-37.43-9.32-14.7-13.98-31.18-13.98-49.36v-353.48c0.92-28.93 10.96-52.94 30.11-72.09 19.1-19.15 43.16-29.18 72.09-30.11h512.4c28.93 0.92 52.94 10.96 72.09 30.11 19.15 19.15 29.18 43.16 30.11 72.09V480.88c-0.51 18.22-5.02 34.66-13.67 49.36zM668.39 375.3L497.82 132.52c-9.05-12.89-29.32-5.07-27.37 10.56l17.2 137.79c1.13 9.06-5.96 17.04-15.09 16.99l-113.7-0.66c-12.5-0.07-19.68 14.2-12.17 24.2l184.57 245.68c9.22 12.28 28.76 4.57 27.12-10.7l-14.99-139.47c-0.95-8.87 5.94-16.63 14.87-16.73l97.94-1.07c12.16-0.14 19.19-13.85 12.19-23.81z"  horiz-adv-x="1024" />

    
    <glyph glyph-name="dingwei" unicode="&#58921;" d="M512-63.469288c-10.69969 0-16.60519 1.283226-20.36584 5.689582-2.261507 2.64934-229.644237 272.535093-290.237267 403.232784-21.890566 46.818305-33.44267 97.655134-33.44267 147.265018 0 187.090049 154.331971 339.226005 344.045777 339.226005s344.045777-153.187915 344.045777-341.429183c0-56.871265-10.660804-99.841939-36.789904-148.300604C747.006362 208.324932 534.795169-54.618713 532.675902-57.24247c-2.532683-3.166109-7.055696-6.227842-20.145829-6.227842L512-63.470311zM512 623.596913c-72.959685 0-132.325771-59.365062-132.325771-132.325771S439.040315 358.945371 512 358.945371s132.325771 59.365062 132.325771 132.325771S584.959685 623.596913 512 623.596913z"  horiz-adv-x="1024" />

    
    <glyph glyph-name="sousuo1" unicode="&#58922;" d="M419.612 58.823c98.532 0 191.716 33.906 266.468 96.142l269.084-269.084c7.51-7.51 17.408-11.264 27.307-11.264s19.797 3.755 27.307 11.264c15.132 15.132 15.132 39.595 0 54.613l-268.97 269.198c136.077 163.84 127.43 408.121-26.056 561.608C635.904 850.034 531.115 893.497 419.612 893.497c-111.502 0-216.291-43.463-295.14-122.197-162.701-162.703-162.701-427.464 0-590.166 78.963-78.962 183.752-122.31 295.14-122.31zM179.2 716.573c64.284 64.17 149.618 99.555 240.412 99.555 90.795 0 176.242-35.385 240.413-99.556 132.551-132.55 132.551-348.387 0-480.938-64.285-64.17-149.618-99.556-240.413-99.556S243.484 171.463 179.2 235.634c-132.551 132.665-132.551 348.387 0 480.938z"  horiz-adv-x="1024" />

    
    <glyph glyph-name="shijian" unicode="&#59004;" d="M0 896h1024v-1024H0zM512 816C273.794 816 80 622.206 80 384s193.794-432 432-432 432 193.794 432 432S750.206 816 512 816m0 80c282.77 0 512-229.23 512-512S794.77-128 512-128 0 101.23 0 384 229.23 896 512 896zM546.642 403.36l159-275.398a40 40 0 0 0-69.282-40l-159 275.396a40 40 0 0 0 69.282 40zM552 630v-246a40 40 0 0 0-80 0V630a40 40 0 0 0 80 0z"  horiz-adv-x="1024" />

    
    <glyph glyph-name="chakan1" unicode="&#59005;" d="M102.378961 793.621039h716.652728v-204.757922h102.378961V793.621039a102.378961 102.378961 0 0 1-102.378961 102.378961H102.378961a102.378961 102.378961 0 0 1-102.378961-102.378961v-767.842209a102.378961 102.378961 0 0 1 102.378961-102.378961h307.136883v102.378961H102.378961zM255.947403 640.052597a51.189481 51.189481 0 0 1 0-102.378961h409.515844a51.189481 51.189481 0 0 1 0 102.378961zM409.515844 435.294675H255.947403a51.189481 51.189481 0 0 1 0-102.378961h153.568441a51.189481 51.189481 0 0 1 0 102.378961zM1008.944662-40.255599l-78.8318 78.8318a255.947403 255.947403 0 1 1-72.689063-72.689063l78.8318-78.8318a51.189481 51.189481 0 0 1 72.689063 72.689063zM563.084286 179.347272a153.568442 153.568442 0 1 0 153.568442-153.568442 153.568442 153.568442 0 0 0-153.568442 153.568442z"  horiz-adv-x="1024" />

    
    <glyph glyph-name="shanchu2" unicode="&#59249;" d="M516.606 788.07c-82.644 0-149.719-65.518-152.573-147.772H171.371c-21.406 0-38.92-17.385-38.92-38.921 0-21.407 17.385-38.922 38.921-38.922h42.943v-435.402c0-81.735 55.399-148.55 123.901-148.55h348.995c68.373 0 123.9 66.426 123.9 148.55V562.195h38.922c21.407 0 38.921 17.386 38.921 38.922 0 21.407-17.385 38.922-38.92 38.922H668.918c-2.466 82.512-69.67 148.03-152.313 148.03z m-79.66-147.772c2.855 42.165 37.236 74.858 79.79 74.858s76.934-32.823 79.4-74.858h-159.19z m-98.86-589.012c-24.261 0-50.987 31.138-50.987 75.767V562.195h450.97v-435.53c0-44.5-26.726-75.768-50.988-75.768H338.086v0.39z m0 0M390.37 144.827c17.774 0 32.435 17.774 32.435 40.09V413.644c0 22.315-14.531 40.09-32.434 40.09-17.775 0-32.435-17.775-32.435-40.09v-228.729c0-22.184 14.27-40.089 32.435-40.089z m117.414 0c17.774 0 32.434 17.774 32.434 40.09V413.644c0 22.315-14.531 40.09-32.434 40.09-17.774 0-32.435-17.775-32.435-40.09v-228.729c0-22.184 14.66-40.089 32.435-40.089z m123.51 0c17.774 0 32.435 17.774 32.435 40.09V413.644c0 22.315-14.53 40.09-32.435 40.09-17.774 0-32.434-17.775-32.434-40.09v-228.729c0-22.184 14.141-40.089 32.434-40.089z m0 0"  horiz-adv-x="1024" />

    
    <glyph glyph-name="riqi" unicode="&#58916;" d="M384 768v-69.792h256V768h64v-69.792h96a64 64 0 0 0 64-64V64a64 64 0 0 0-64-64H224a64 64 0 0 0-64 64V634.176a64 64 0 0 0 64 64l96 0.032V768h64zM224 448v-384h576V448H224z m480-224v-64H320v64h384z m0 128v-64H320v64h384zM320 640.032L224 640v-128h576V640l-96 0.032V576h-64v64.032H384V576h-64v64.032z"  horiz-adv-x="1024" />

    
    <glyph glyph-name="wenjian" unicode="&#58917;" d="M544 768H256c-19.2 0-32-12.8-32-32v-704c0-19.2 12.8-32 32-32h512c19.2 0 32 12.8 32 32V512H608c-35.2 0-64 28.8-64 64V768z m64-12.8V576h179.2L608 755.2zM256 832h352c9.6 0 16-3.2 22.4-9.6l224-224c6.4-6.4 9.6-12.8 9.6-22.4v-544c0-54.4-41.6-96-96-96H256c-54.4 0-96 41.6-96 96V736c0 54.4 41.6 96 96 96z m64-352h160c19.2 0 32-12.8 32-32s-12.8-32-32-32H320c-19.2 0-32 12.8-32 32s12.8 32 32 32z m0-128h384c19.2 0 32-12.8 32-32s-12.8-32-32-32H320c-19.2 0-32 12.8-32 32s12.8 32 32 32z m0-128h384c19.2 0 32-12.8 32-32s-12.8-32-32-32H320c-19.2 0-32 12.8-32 32s12.8 32 32 32z"  horiz-adv-x="1024" />

    
    <glyph glyph-name="querengou" unicode="&#58918;" d="M512 832C264.32 832 64 631.68 64 384s200.32-448 448-448 448 200.32 448 448S759.68 832 512 832z m0-832c-211.84 0-384 172.16-384 384s172.16 384 384 384 384-172.16 384-384-172.16-384-384-384z m197.76 567.68l-237.44-233.6-98.56 96c-12.8 12.8-33.28 12.8-46.08 0-12.8-12.8-12.8-33.28 0-45.44l121.6-119.04c12.8-12.8 33.28-12.8 46.08 0l260.48 256c12.8 12.8 12.8 33.28 0 45.44-12.16 13.44-33.28 13.44-46.08 0.64z"  horiz-adv-x="1024" />

    
    <glyph glyph-name="zhenggai" unicode="&#58919;" d="M324.267 372.622c0 5.69 0 5.69 0 0l455.11 455.111c11.379 11.378 34.134 22.756 51.2 22.756 22.756 0 45.512-11.378 62.579-28.445l39.822-39.822c17.066-17.066 28.444-39.822 28.444-62.578 0-17.066-5.689-39.822-22.755-51.2l-449.423-455.11h-5.688l-170.667-45.512H307.2c-5.689 0-17.067 5.69-22.756 5.69-5.688 5.688-11.377 17.066-5.688 28.444l45.51 170.666z m500.622 403.911l-409.6-409.6 62.578-62.577 415.289 415.288-68.267 56.89zM341.333 230.4l79.645 22.756-56.89 62.577-22.755-85.333zM978.489 463.644V31.29c0-62.578-51.2-108.089-108.089-108.089H153.6c-56.889 0-108.089 51.2-108.089 108.089V736.71c0 62.578 51.2 113.778 108.089 113.778h460.8c22.756 0 39.822-17.067 39.822-45.511 0-22.756-17.066-45.511-39.822-45.511H159.289c-17.067 0-28.445-11.378-28.445-28.445V31.29c0-17.067 11.378-28.445 28.445-28.445H864.71c17.067 0 28.445 11.378 28.445 28.445V463.644c0 22.756 17.066 45.512 45.51 45.512 22.756-5.69 39.823-22.756 39.823-45.512z"  horiz-adv-x="1024" />

    
    <glyph glyph-name="shangchuan" unicode="&#58920;" d="M821.76 416.512s-6.272 206.4-174.4 247.424-249.152-136.128-250.816-141.184c-1.664-5.056-9.92-2.752-9.92-2.752-13.44 12.736-72.704 41.984-134.976 4.48-62.208-37.504-39.68-108.736-39.68-108.736s-92.224 7.488-139.52-134.912C25.216 138.304 190.912 97.92 190.912 97.92h278.144V249.536h-64.32v0.256c-3.2 0-5.76 2.56-5.76 5.824 0 1.92 1.024 3.584 2.56 4.672L515.52 380.16c1.6 1.792 3.84 3.008 6.464 3.008 2.688 0 5.056-1.344 6.656-3.328l113.152-118.912c0.192-0.128 0.384-0.32 0.576-0.512l1.088-1.152h-0.384c0.576-1.024 0.96-1.92 0.96-3.136a6.514 6.514 0 0 0-6.528-6.528c-0.128 0-0.128 0.128-0.256 0.128v-0.256h-61.312v-151.616h252.48S948.8 128 959.424 252.288C970.176 376.576 821.76 416.512 821.76 416.512z"  horiz-adv-x="1024" />

    
    <glyph glyph-name="kakoushexiangtou" unicode="&#58914;" d="M280 251.8h-84v105l-84 15.5V34l84 27.2V177.9h136l72 97.2-96 50.6-28-73.9z m436-19.4L912 353 304 734h-72l-96-143.9v-50.6l536-311.1 44 4z m-72-27.2L184 492.9l-48-50.6 536-311.1h48l24 23.4 24 70-72-50.6c-32.1 23.4-52 31.2-52 31.2z m0 0"  horiz-adv-x="1024" />

    
    <glyph glyph-name="zhuangxiezuoye" unicode="&#58915;" d="M703.48 525.35L452 417a13.75 13.75 0 0 0-18.13 7.42l-67.41 160.96a14.1 14.1 0 0 0 7.31 18.39l251.46 108.34a13.76 13.76 0 0 0 18.13-7.43l67.44-160.94a14.1 14.1 0 0 0-7.32-18.39zM477.59 205.16l-218.47 543.1A25.49 25.49 0 0 1 225.54 762l-146.6-63.15a26.1 26.1 0 0 1-13.55-34A25.46 25.46 0 0 1 99 651.06l123 53 213.64-531.54a122.8 122.8 0 0 0 41.95 32.64z m479.71 50.11A25.49 25.49 0 0 1 923.72 269l-283-121.92c1-2 1.92-4.11 2.81-6.23a126.32 126.32 0 0 0 9.78-44.77l290.44 125.14a26.1 26.1 0 0 1 13.55 34.05z m-87.11 61.8l-79.65 190.1a16.9 16.9 0 0 1-22.28 9.12L470.64 388.07a17.33 17.33 0 0 1-9-22.6L524 216.57a122.74 122.74 0 0 0 86.12-30.25l251 108.16a17.32 17.32 0 0 1 9.07 22.59zM197.39 474.53H92.12c-15.39 0-27.85 11.62-27.85 26 0 14.34 12.46 26 27.85 26h105.27zM259 338.49H122.15c-15.39 0-27.86 11.63-27.86 26 0 14.34 12.47 26 27.86 26H259z m81.22-136.03h-188c-15.39 0-27.86 11.62-27.86 26 0 14.34 12.47 26 27.86 26h188z m275.85-73.09c-20.15 48.09-74.92 70.51-122.34 50.08s-69.53-76-49.38-124.06 74.92-70.5 122.34-50.07 69.52 75.97 49.38 124.05z m-85.86-73.73a36.75 36.75 0 1 0 36.57 36.74 36.65 36.65 0 0 0-36.57-36.74z"  horiz-adv-x="1024" />

    
    <glyph glyph-name="shenhejieguo" unicode="&#58906;" d="M597.333 704v-170.667A42.667 42.667 0 0 1 640 490.667h170.667v-384A42.667 42.667 0 0 0 768 64H256a42.667 42.667 0 0 0-42.667 42.667V661.333A42.667 42.667 0 0 0 256 704h341.333zM640 704l170.667-170.667H661.333A21.333 21.333 0 0 0 640 554.667V704zM432.427 296.213A1292.224 1292.224 0 0 0 341.333 256v-64a21.333 21.333 0 0 1 21.334-21.333H576A21.333 21.333 0 0 1 597.333 192v64c-39.765 13.248-70.272 26.517-91.52 39.765 16.64 17.771 27.52 45.142 27.52 66.902a64 64 0 0 1-128 0c0-21.59 10.688-48.64 27.094-66.454z"  horiz-adv-x="1024" />

    
    <glyph glyph-name="shipinzhuisu" unicode="&#58907;" d="M797.696 731.136H226.304c-33.792 0-61.44-27.648-61.44-61.44v-571.392c0-33.792 27.648-61.44 61.44-61.44h571.392c33.792 0 61.44 27.648 61.44 61.44V669.696c0 33.792-27.648 61.44-61.44 61.44zM664.064 378.368c-1.024-1.536-2.56-3.072-4.096-4.096l-221.696-128c-1.536-1.024-3.584-1.536-5.632-1.536-6.144 0-11.776 5.12-11.776 11.776V512c0 3.072 1.024 6.144 3.584 8.192 2.048 2.048 5.12 3.584 8.192 3.584 2.048 0 4.096-0.512 5.632-1.536l221.696-128c2.56-1.536 4.608-4.096 5.632-7.168 0.512-3.072 0-6.144-1.536-8.704z"  horiz-adv-x="1024" />

    
    <glyph glyph-name="weihuapin" unicode="&#58908;" d="M384 355.328a128 128 0 1 1 256 0 128 128 0 1 1-256 0zM512 526.131c31.13 0 60.211-8.397 85.402-22.937l128 221.798c-127.59 73.523-289.997 78.848-426.599 0l128-221.798C451.79 517.734 480.87 526.13 512 526.13z m170.598-170.803c0-63.078-34.406-118.374-85.401-147.866l128-221.798c136.806 79.053 213.197 222.208 213.401 369.46h-256z m-341.196 0h-256c0-72.5 18.432-146.022 57.139-213.402s93.389-120.012 156.057-156.262l128 221.798c-50.995 29.696-85.196 84.788-85.196 147.866z"  horiz-adv-x="1024" />

    
    <glyph glyph-name="qiye2" unicode="&#58909;" d="M959 63.87c-0.58 13-10.57 24-24.05 24h-33.67V508.56a60.13 60.13 0 0 1-60.13 60.13H589.51c0-11.28-0.13-22.55-0.11-33.81q0.14-58.71 0.25-117.42 0.15-67.89 0.29-135.79l0.24-112.72q0.06-23.49 0.1-47c0-13.48-11-23.47-24-24s-24 11.47-24.05 24v0.81c-0.46 19.09-0.09 38.24-0.13 57.33q-0.12 58.71-0.25 117.42-0.13 67.91-0.28 135.79V668.12a60.13 60.13 0 0 1-60.13 60.13H182.85a60.13 60.13 0 0 1-60.13-60.13v-580.2c-10.75 0-21.5 0.16-32.24 0h-1.41c-12.58 0-24.63-11.06-24-24s10.57-24 24-24h811.35c11 0 22.08-0.16 33.1 0h1.41c12.58-0.1 24.63 10.96 24.07 23.95zM687.24 406.36h128.28c13.48 0 23.47-11 24.05-24.05s-11.47-24-24.05-24H687.24c-13.49 0-23.47 11-24 24s11.42 24.05 24 24.05z m0-159.64h128.28c13.48 0 23.47-11 24.05-24.06s-11.47-24-24.05-24H687.24c-13.49 0-23.47 11-24 24s11.42 24.06 24 24.06z m-421 321.56H398c13.63 0 23.73-11.15 24.32-24.32s-11.6-24.32-24.32-24.32H266.25c-13.63 0-23.73 11.14-24.32 24.32s11.6 24.32 24.32 24.32z m0-161.23H398c13.63 0 23.73-11.14 24.32-24.32s-11.6-24.31-24.32-24.31H266.25c-13.63 0-23.73 11.14-24.32 24.31S253.53 407 266.25 407z m0-161.07H398c13.63 0 23.73-11.14 24.32-24.32s-11.6-24.32-24.32-24.32H266.25c-13.63 0-23.73 11.15-24.32 24.32S253.53 246 266.25 246z"  horiz-adv-x="1024" />

    
    <glyph glyph-name="jinchuheyan" unicode="&#58910;" d="M254 276.58a94.79 94.79 0 1 1 94.79-94.79A94.8 94.8 0 0 1 254 276.58z m0-135.2a40.35 40.35 0 1 0 40.41 40.29A40.4 40.4 0 0 0 254 141.38zM373 572.7H246.73C144.61 572.7 79 405.83 79 389.18v-165.59a57.5 57.5 0 0 1 54.38-57.41 112.34 112.34 0 0 0-0.58 12.58 120.87 120.87 0 1 0 241.75 0 114.34 114.34 0 0 0-0.7-12.69h56.59V515.18A57.5 57.5 0 0 1 373 572.7z m-50-65.91c-0.58-12.46 0-70 0-70H215.41c0 0.23-21-0.7-47-7.34a119 119 0 0 1-32.14-14s36.33 63 54.15 84.19c18.4 22 34 20.15 34 20.15h86.52s12.65-0.54 12.06-13zM697.73 275.3H457.39v-107.83H648c-0.11 44.94 14.92 84.53 49.73 107.83zM768.65 276.58a94.79 94.79 0 1 1 94.79-94.79 94.8 94.8 0 0 1-94.79 94.79z m0-135.2a40.35 40.35 0 1 0 40.41 40.29 40.3 40.3 0 0 0-40.41-40.29zM887.31 681h-372.4v-0.12a57.52 57.52 0 0 1-57.52-57.64v-321.16H945V623.36A57.62 57.62 0 0 1 887.31 681zM698.39 389.6l-44.83-44.83-44.83 44.83-89.66 89.66 44.83 44.83 89.66-89.66 179.32 179.32 44.83-44.83zM890 188.31c0.7-5.36 1.28-16.65 1.28-22.24 36 5.71 53.57 31.56 53.57 59.39V275.3H841.08c30.28-20.15 43.79-49.38 48.92-86.99z"  horiz-adv-x="1024" />

    
    <glyph glyph-name="zhuangxiequbeizhu" unicode="&#58911;" d="M614.461-14.645c-1.627-3.435-5.123-6.307-10.387-8.033l-70.028-22.846c-12.572-4.09-19.345 2.529-15.188 14.85l23.36 68.466c1.753 5.183 4.74 8.585 8.263 10.196l220.836 215.894 64.026-62.594L614.46-14.645z m-163.752 28.22L771.31 327.018V604.135H611.31c-35.347 0.011-64.004 28.024-64.009 62.579V827.08H223.295c-50.852 0-92.06-40.284-92.06-89.973V83.99c0-18.678 7.603-36.592 21.105-49.793 13.51-13.21 31.83-20.628 50.929-20.623h247.44zM616.083 815.3l143.202-140c20.323-19.859 13.462-35.959-15.22-35.959H631.276c-28.706 0.011-51.989 22.748-52.01 50.804V800.39c0 28.083 16.483 34.718 36.777 14.87l0.04 0.039z m-356.83-332.41c0.012 17.281 14.337 31.284 32.01 31.3H611.31c17.674-0.021 31.983-14.019 31.988-31.3-0.016-17.264-14.325-31.261-31.988-31.278H291.27c-17.668 0.011-31.988 14.009-32.016 31.278z m0-125.14c0.028 17.27 14.348 31.257 32.01 31.273H611.31c17.663-0.016 31.972-14.014 31.988-31.272-0.005-17.281-14.325-31.279-31.988-31.295H291.27c-17.668 0.01-32.004 14.003-32.016 31.295z m526.721-80.809l37.018 36.172c9.356 9.159 24.528 9.175 33.91 0.049l31.95-31.218c9.34-9.175 9.323-24.015-0.048-33.173l-37.018-36.21-65.795 64.37-0.017 0.01z m0 0"  horiz-adv-x="1024" />

    
    <glyph glyph-name="zhuangxieweiguanli" unicode="&#58912;" d="M470.08857013 614.6801293999999H116.49255057L195.58168083 754.73456964A62.94207502 62.94207502 0 0 0 248.3085399 779.44992314h222.43895164z m437.29837301 0H554.12154341V779.44992314h221.45095535a68.87391432 68.87391432 0 0 0 52.72608659-24.7153535zM779.1977257 219.23293310999998v5.2721454a40.86318045 40.86318045 0 0 1 0 5.27291711 19.11336076 19.11336076 0 0 1-1.64769018 4.61399645 65.90760882 65.90760882 0 0 1-121.92984824 0 19.11336076 19.11336076 0 0 1-1.64769019-4.61399645 40.86318045 40.86318045 0 0 1 0-5.27291711v-5.2721454a24.7153535 24.7153535 0 0 1 0-4.94384303v-1.97676503a16.14705526 16.14705526 0 0 1 0-3.9543018v-2.63645893a14.17029022 14.17029022 0 0 0 0-3.62445523 9.55629453 9.55629453 0 0 0 0-2.9663055 65.90760882 65.90760882 0 0 1 46.79424805-47.78301682 65.90760882 65.90760882 0 0 1 32.95380442 0 65.90760882 65.90760882 0 0 1 46.79501977 47.78301682 9.55629453 9.55629453 0 0 0 0 2.9663055 14.17029022 14.17029022 0 0 0 0 3.62445523v0.32984656a16.14705526 16.14705526 0 0 1 0 3.95430255v9.22721968zM116.49255057 542.1817598499999v-520.67242489a32.95380441 32.95380441 0 0 1 32.9538044-32.95380441h724.98755625a30.97626688 30.97626688 0 0 1 24.7153535 9.88614109 32.95380441 32.95380441 0 0 1 8.2384509 23.06766332v520.67165241z m301.52808191-299.22224201H225.24164983a28.99950262 28.99950262 0 0 0-29.32934919 27.68165901v4.94307054a28.99950262 28.99950262 0 0 0 29.32934919 27.68088653H418.02063248a28.66965529 28.66965529 0 0 0 28.99872937-27.68088653v-4.94384302a28.66965529 28.66965529 0 0 0-28.99872937-27.68088653z m116.98677769 186.84946077a28.66965529 28.66965529 0 0 0-28.99873014-27.68165976H225.24087735a28.99950262 28.99950262 0 0 0-29.32934918 27.68165976V434.75127668a28.99950262 28.99950262 0 0 0 29.32934918 27.68088654h280.76780268a28.66965529 28.66965529 0 0 0 28.99873015-27.68088654z m309.10838311-189.15607314v-56.02146696h-32.95380441a75.7937499 75.7937499 0 0 0-3.95507426-11.20475719c0-2.9663055-2.96553303-5.93183931-4.61322322-8.89737233l22.73858846-22.40874188-39.54456513-39.54456514-22.40951437 22.73781598-8.89737232-4.61322322-11.86290615-4.28414911v-32.95380442H686.59490998v32.95380442l-11.86290614 4.28414911-8.89814557 4.61322322-22.40796865-22.73781598-39.5453376 39.54456514 22.73858846 22.40874188c-1.64769019 2.9663055-3.29538037 5.93183931-4.61399647 8.89737233a75.7937499 75.7937499 0 0 0-3.95430178 11.20475719h-32.95380441v56.02146696h32.95380441a98.86141322 98.86141322 0 0 0 9.22721966 22.07889455l-25.70412149 22.40951359 39.54456515 39.54379267 22.40951359-22.73781521a98.86141322 98.86141322 0 0 0 22.07889455 9.22721967v32.95380363h57.01023571v-32.95380363a98.86141322 98.86141322 0 0 0 22.07889457-9.22721967l22.40874112 22.73781521 39.54456513-39.54456514-22.73781598-22.40874112a98.86141322 98.86141322 0 0 0 9.22721966-22.07889455z"  horiz-adv-x="1024" />

    
    <glyph glyph-name="weixianyuanjiance" unicode="&#58913;" d="M63.942 103.82c0-56.322 45.66-102.033 102.034-102.033h714.237c56.322 0 102.034 45.71 102.034 102.033V716.023c0 56.374-45.712 102.034-102.034 102.034H165.975c-56.374 0-102.034-45.66-102.034-102.034V103.82z m536.551 195.05l-230.45-144.032V665.007l327.654-204.784-97.204-161.354z m205.583 180.676c1.179-1.93 5.199-8.598 12.064-20s15.495-25.801 25.89-43.192c10.394-17.393 22.064-37.104 35.006-59.133a11339.277 11339.277 0 0 1 40.014-67.545c13.727-22.994 27.36-45.8 40.892-68.41 7.828-13.077 15.262-25.54 22.303-37.389 0 0 0.003-56.215 0.003-87.255s-32.954-94.212-96.045-94.212H772.541c-28.246 0-56.29-0.097-84.142-0.29-27.851-0.194-53.74-0.29-77.666-0.29H507.765c-14.909 0-26.38 2.515-34.422 7.538-8.041 5.025-13.433 11.495-16.18 19.42s-3.04 16.523-0.884 25.8c2.158 9.276 5.982 17.973 11.472 26.089 2.748 4.25 8.14 12.948 16.181 26.09 8.042 13.141 17.75 29.083 29.127 47.828 11.374 18.746 23.926 39.422 37.656 62.035 13.73 22.611 27.655 45.608 41.777 68.991s27.851 46.088 41.188 68.12a10045.36 10045.36 0 0 1 35.892 59.714c10.59 17.782 19.414 32.467 26.478 44.062l12.352 20.293c5.494 8.504 12.654 14.978 21.479 19.422 8.827 4.444 17.943 6.667 27.36 6.667 9.414 0 18.533-2.03 27.36-6.086 8.825-4.063 15.985-10.149 21.475-18.267zM696.05 457.516L600.492 298.87l95.556 158.647zM796.089 392.706c0.95-1.579 4.19-7.035 9.726-16.365 5.534-9.33 12.492-21.111 20.873-35.341a7672.841 7672.841 0 0 0 28.222-48.385 9291.38 9291.38 0 0 1 32.26-55.268 58216.191 58216.191 0 0 1 32.967-55.974 9659.79 9659.79 0 0 0 29.888-50.996 14655.77 14655.77 0 0 1 23.244-39.846c6.484-11.07 10.99-18.66 13.52-22.772 4.744-7.906 7.67-15.81 8.777-23.719 1.104-7.906 0.631-15.022-1.426-21.346-2.054-6.324-5.691-11.464-10.908-15.417-5.22-3.951-11.624-5.77-19.215-5.454-3.793 0-11.858 0.078-24.19 0.237-12.334 0.157-27.199 0.236-44.594 0.236H769.05c-22.773 0-45.384-0.08-67.837-0.236-22.453-0.16-43.327-0.237-62.616-0.237H555.582c-12.02 0-21.27 2.057-27.752 6.167-6.484 4.112-10.83 9.405-13.045 15.89-2.215 6.483-2.45 13.52-0.711 21.11 1.74 7.59 4.823 14.707 9.248 21.347 2.216 3.478 6.564 10.594 13.046 21.346 6.484 10.753 14.31 23.798 23.482 39.137 9.171 15.337 19.29 32.255 30.36 50.76 11.069 18.5 22.298 37.318 33.682 56.45a61388.75 61388.75 0 0 0 33.206 55.739 8171.573 8171.573 0 0 1 28.937 48.86c8.538 14.55 15.654 26.566 21.347 36.053l9.958 16.603c4.43 6.958 10.203 12.256 17.319 15.892 7.115 3.637 14.465 5.455 22.057 5.455 7.59 0 14.943-1.662 22.058-4.98 7.116-3.323 12.889-8.302 17.315-14.946z m-11.86-92.976c0 3.794-0.87 7.352-2.608 10.674-1.74 3.32-4.03 6.323-6.88 9.012a33.56 33.56 0 0 1-9.723 6.406c-3.637 1.58-7.355 2.371-11.149 2.371-7.272 0-13.996-2.847-20.162-8.54-6.164-5.692-9.25-12.174-9.25-19.45v-124.285c0-7.274 3.086-13.838 9.25-19.687 6.166-5.85 12.89-8.776 20.162-8.776 7.591 0 14.549 2.767 20.872 8.302 6.326 5.533 9.487 11.938 9.487 19.21V299.73h0.002zM753.87 119.467c-8.223 0-15.258-2.847-21.112-8.54-5.848-5.692-8.772-12.65-8.772-20.872s2.924-15.26 8.772-21.11c5.853-5.849 12.888-8.775 21.112-8.775 8.222 0 15.182 2.926 20.872 8.774 5.693 5.85 8.54 12.888 8.54 21.111s-2.846 15.181-8.54 20.872c-5.691 5.693-12.65 8.54-20.872 8.54z"  horiz-adv-x="1024" />

    
    <glyph glyph-name="xinxiguanli" unicode="&#58903;" d="M0 896h1024v-1024H0zM863.027 187.92100000000005l-64.921 64.939a87.893 87.893 0 0 1 10.752 42.393c0 49.05-39.715 88.747-88.747 88.747a89.21 89.21 0 0 1-31.778-5.837l22.886-22.886c14.012-14.012 14.012-37.035 0-51.03a36.233 36.233 0 0 0-51.03 0l-22.868 22.87a89.702 89.702 0 0 1-5.854-31.744c0-49.05 39.697-88.747 88.746-88.747 15.412 0 29.782 3.84 42.394 10.735l64.922-64.939a25.225 25.225 0 0 1 35.618 0 25.207 25.207 0 0 1-0.12 35.5z m-18.21-30.942a12.015 12.015 0 1 0 0 24.064c6.656 0 12.015-5.376 12.015-12.032a12.169 12.169 0 0 0-12.015-12.032zM572.33 284.928c0 77.312 63.813 139.861 142.405 139.861 32.99 0 63.317-10.99 87.398-29.44V567.245c0 30.737-25.395 55.688-56.695 55.688h-501.01c-31.3 0-56.695-24.951-56.695-55.688v-366.49c0-30.737 25.396-55.688 56.696-55.688h470.323c-78.592 0-142.404 62.651-142.404 139.861zM250.932 522.206h164.08v-32.99H250.93v32.99z m0-105.216h215.467V384H250.93v32.99z m291.311-138.206h-291.31v32.973h291.31v-32.973z"  horiz-adv-x="1024" />

    
    <glyph glyph-name="paishe" unicode="&#58893;" d="M661.3 745.6H362.7L303 651.3h418.1l-59.8 94.3zM512 494.3c-86.8 0-157.2-70.4-157.2-157.2 0-86.8 70.4-157.2 157.2-157.2 86.8 0 157.2 70.4 157.2 157.2 0 86.8-70.4 157.2-157.2 157.2z m385.1 156.9H126.9C92.2 651.2 64 623 64 588.3v-503c0-34.7 28.2-62.9 62.9-62.9h770.2c34.7 0 62.9 28.2 62.9 62.9v503c0 34.8-28.2 62.9-62.9 62.9zM512 132.7c-112.9 0-204.4 91.5-204.4 204.4S399.1 541.4 512 541.4 716.4 449.9 716.4 337 624.9 132.7 512 132.7z m306.5 408.5c-17.4 0-31.4 14.1-31.4 31.4 0 17.4 14.1 31.4 31.4 31.4s31.5-14 31.5-31.4c0-17.3-14.1-31.4-31.5-31.4z"  horiz-adv-x="1024" />

    
    <glyph glyph-name="shouye1" unicode="&#58894;" d="M511.707 597.138L893.88 259.072l0.51-387.072H134.07l-0.366 387.072 378.002 338.066z m124.636-513.463h-253.22v-211.602h253.22V83.675zM512 896l95.086-80.238 225.28-189.879L1024 464.238l-86.894-96.183L512 735.598 85.87 368.055 0 464.238 416.914 815.762 512 896z"  horiz-adv-x="1024" />

    
    <glyph glyph-name="huoyunche" unicode="&#58895;" d="M934.4 492.8h-112V448c22.4-12.8 35.2-35.2 35.2-64v-252.8H163.2V384c0 25.6 16 51.2 38.4 64v48H86.4C67.2 496 48 512 48 531.2v35.2c0 19.2 16 35.2 38.4 35.2h38.4V528h73.6V640c0 41.6 32 73.6 73.6 73.6h480c41.6 0 73.6-32 73.6-73.6v-108.8h73.6v73.6h38.4c19.2 0 38.4-16 38.4-35.2v-35.2c-3.2-25.6-19.2-41.6-41.6-41.6zM384 163.2h259.2v35.2H384v-35.2z m0 73.6h259.2V272H384v-35.2z m0 73.6h259.2v35.2H384v-35.2zM236.8 201.6c0-19.2 16-35.2 38.4-35.2h38.4c19.2 0 38.4 16 38.4 35.2 0 19.2-16 35.2-38.4 35.2H272c-19.2 0-35.2-16-35.2-35.2zM752 604.8c0 19.2-16 35.2-35.2 35.2H310.4c-19.2 0-38.4-16-38.4-35.2v-182.4h480V604.8z m0-368h-38.4c-19.2 0-38.4-16-38.4-35.2 0-19.2 16-35.2 38.4-35.2H752c19.2 0 38.4 16 38.4 35.2 0 19.2-16 35.2-38.4 35.2z m38.4 512H236.8c-41.6 0-73.6-32-73.6-73.6V857.6c0 22.4 16 38.4 35.2 38.4h627.2C848 896 864 880 864 860.8v-182.4c0 38.4-32 70.4-73.6 70.4zM864 57.6c0-19.2-16-35.2-38.4-35.2H198.4c-19.2 0-38.4 16-38.4 35.2v35.2h704v-35.2zM345.6-92.8c0-19.2-16-35.2-38.4-35.2H272c-19.2 0-38.4 16-38.4 35.2v73.6h112v-73.6z m444.8 0c0-19.2-16-35.2-38.4-35.2h-38.4c-19.2 0-38.4 16-38.4 35.2v73.6h112l3.2-73.6z"  horiz-adv-x="1024" />

    
    <glyph glyph-name="xiala" unicode="&#58896;" d="M800.6 542.9c-16.3 16.3-43.1 16.3-59.4 0L511.4 313.1 281.6 542.9c-16.3 16.3-43.1 16.3-59.4 0-16.3-16.3-16.3-43.1 0-59.4L481.7 224c16.3-16.3 43.1-16.3 59.4 0l259.4 259.4c16.4 16.4 16.4 43.2 0.1 59.5z"  horiz-adv-x="1024" />

    
    <glyph glyph-name="shaixuan" unicode="&#58897;" d="M853.333 832H170.667c-36.267 0-64-27.733-64-64v-38.4c0-17.067 6.4-32 17.066-42.667l281.6-260.266c12.8-12.8 21.334-29.867 21.334-46.934v-317.866c0-21.334 10.666-42.667 29.866-53.334l108.8-66.133c2.134-6.4 6.4-6.4 10.667-6.4 10.667 0 21.333 8.533 21.333 21.333v422.4c0 17.067 8.534 34.134 21.334 46.934l281.6 260.266c10.666 12.8 17.066 27.734 17.066 42.667V768c0 36.267-27.733 64-64 64z"  horiz-adv-x="1024" />

    
    <glyph glyph-name="renyuanzhuangtai" unicode="&#58898;" d="M328.4 603.4a182.9 182.9 0 1 1 365.8 0 182.9 182.9 0 1 1-365.8 0z m429.2-346L658.4 205c-15.6-8.3-15.6-30.7 0-38.9l99.2-52.4c6.4-3.4 14.1-3.4 20.6 0l99.2 52.4c15.6 8.3 15.6 30.7 0 38.9l-99.2 52.4c-6.5 3.4-14.2 3.4-20.6 0zM881.7 143.7c-1.1 0-3.3-1.1-5.1-2.2l-90-54.1c-11.7-6.9-26-6.9-37.7 0l-90.3 54.1c-1 0.7-3.5 2.2-5.1 2.2-4 0-7.3-3.3-7.3-7.3v-18.3c0-4 2.6-7.3 5.9-8.8l96.9-58.5c11.7-6.9 26.3-6.9 37.7 0l96.9 58.5c3.3 1.5 5.5 4.8 5.5 8.8v18.3c0 4-3.3 7.3-7.4 7.3zM881.7 80c-1.1 0-3.3-1.1-5.1-2.2l-90-54.1c-11.7-6.9-26-6.9-37.7 0l-90.3 54.1c-1 0.7-3.5 2.2-5.1 2.2-4 0-7.3-3.3-7.3-7.3v-18.3c0-4 2.6-7.3 5.9-8.8l96.9-58.5c11.7-6.9 26.3-6.9 37.7 0l96.9 58.5c3.3 1.5 5.5 4.8 5.5 8.8v18.3c0 4-3.3 7.3-7.4 7.3zM768 296.6c7.3 0 14.3-1.5 20.8-4 0.4 0 0.7-0.4 1.1-0.4 2.2-1.1 4.8-1.5 7.3-1.5 9.9 0 18.3 8 18.3 18.3 0 4-1.1 7.3-3.3 10.2-0.7 1.1-1.5 1.8-2.2 2.6-39.1 43.9-87.4 79.4-142.6 102.8-11.7 5.1-24.9 2.6-35.8-4.4-34.4-23-75.7-36.2-120.3-36.2-44.6 0-86.3 13.5-121.1 36.6-10.6 6.9-23.8 9.5-35.8 4.8-132.8-56-229.3-180.7-244.3-329.9-2.2-21.6 15-40.6 36.9-40.6h426.4c20.1 0 36.2 16.1 36.2 36.2 0.4 36.6 0.4 88.5 0.4 94.4 0 21.9 12.1 41.7 31.5 51.9l99.1 52.3c8.4 4.3 17.9 6.9 27.4 6.9z"  horiz-adv-x="1024" />

    
    <glyph glyph-name="shipin" unicode="&#58899;" d="M450.133 682.667L305.067 853.333H140.8l145.067-170.666z m426.667 0L731.733 853.333H567.467l145.066-170.666z m-213.333 0L518.4 853.333H354.133L499.2 682.667z m275.2 170.666H780.8l145.067-170.666h76.8V789.333c0 36.267-27.734 64-64 64z m-846.934 0h-6.4c-36.266 0-64-27.733-64-64v-106.666H236.8L91.733 853.333z m-70.4-874.666c0-36.267 27.734-64 64-64h853.334c36.266 0 64 27.733 64 64V640H21.333v-661.333zM362.667 448c0 36.267 29.866 53.333 64 53.333 10.666 0 23.466-2.133 34.133-8.533L704 352c42.667-23.467 42.667-83.2 0-106.667l-243.2-140.8c-10.667-6.4-21.333-8.533-34.133-8.533-34.134 0-64 17.067-64 53.333V448z"  horiz-adv-x="1024" />

    
    <glyph glyph-name="sousuo" unicode="&#58900;" d="M419.612 58.823c98.532 0 191.716 33.906 266.468 96.142l269.084-269.084c7.51-7.51 17.408-11.264 27.307-11.264s19.797 3.755 27.307 11.264c15.132 15.132 15.132 39.595 0 54.613l-268.97 269.198c136.077 163.84 127.43 408.121-26.056 561.608C635.904 850.034 531.115 893.497 419.612 893.497c-111.502 0-216.291-43.463-295.14-122.197-162.701-162.703-162.701-427.464 0-590.166 78.963-78.962 183.752-122.31 295.14-122.31zM179.2 716.573c64.284 64.17 149.618 99.555 240.412 99.555 90.795 0 176.242-35.385 240.413-99.556 132.551-132.55 132.551-348.387 0-480.938-64.285-64.17-149.618-99.556-240.413-99.556S243.484 171.463 179.2 235.634c-132.551 132.665-132.551 348.387 0 480.938z"  horiz-adv-x="1024" />

    
    <glyph glyph-name="weixianjiance" unicode="&#58901;" d="M272.4 62L246-18.6h524.6L744.1 62H272.4z m82.4-65.7h-86.2l16.7 50.8h120.2c-16.9-16.9-33.8-33.8-50.7-50.8z m152 552.6c-115.5 0-209.1-93.6-209.1-209.1V83h421.1V339.8c0 115.5-93.6 209.1-209.1 209.1h-2.9z m171.7-215.1c0-6.4-3.4-12.3-9-15.5-5.5-3.2-12.4-3.2-17.9 0-5.5 3.2-9 9.1-9 15.5-0.1 72.5-58.9 131.3-131.4 131.4h-3c-9.9 0-17.9 8-17.9 17.9 0 9.9 8 17.9 17.9 17.9h3c92.4 0 167.2-74.8 167.3-167.2z m-414.4 89.8c1.8 8.9 0 18.1-5.1 25.6-5 7.5-12.8 12.7-21.7 14.5l-98.6 19.8c-10.9 2.2-22.2-1.1-30.2-8.8-8-7.7-11.8-18.8-10.2-29.8 2.1-13.7 12.5-25.4 27-28.3l98.6-19.8c18.5-3.5 36.5 8.4 40.2 26.8z m-22.6 228.5l62.9-78.6c11.7-14.7 33.1-17.1 47.8-5.3 7.1 5.6 11.6 13.8 12.6 22.8s-1.6 18-7.3 25l-62.8 78.5c-11.7 14.7-33.2 17.1-47.9 5.3-14.7-11.6-17.1-33-5.3-47.7z m271.1-29.7c18.8-0.4 34.4 14.5 34.9 33.3l-0.3 100.5c0.4 18.8-14.4 34.4-33.3 34.9-18.8 0.4-34.4-14.5-34.9-33.3l0.2-100.5c-0.2-9 3.2-17.8 9.4-24.3 6.4-6.7 14.9-10.4 24-10.6z m157.7-61.6c6.8-6 15.6-9 24.7-8.4 9 0.6 17.4 4.7 23.4 11.5l66.4 75.5c11.6 14.2 9.9 35-3.9 47.1-13.8 12.1-34.7 11.2-47.3-2.2l-66.4-75.5c-6.6-7.6-9.6-17.7-8.1-27.6 1.1-7.7 4.8-14.9 11.2-20.4z m247.9-123.2c-2.8 18.6-20.2 31.4-38.8 28.6L780 451c-12.5-1.3-23.2-9.4-28-21-4.7-11.6-2.7-24.9 5.3-34.6 8-9.7 20.7-14.2 33-11.7l99.3 15.1c8.9 1.4 17 6.2 22.3 13.5 5.4 7.2 7.6 16.3 6.3 25.3z m0 0"  horiz-adv-x="1024" />

    
    <glyph glyph-name="zhuangxiejiankong" unicode="&#58902;" d="M703.48 525.35L452 417a13.75 13.75 0 0 0-18.13 7.42l-67.41 160.96a14.1 14.1 0 0 0 7.31 18.39l251.46 108.34a13.76 13.76 0 0 0 18.13-7.43l67.44-160.94a14.1 14.1 0 0 0-7.32-18.39zM477.59 205.16l-218.47 543.1A25.49 25.49 0 0 1 225.54 762l-146.6-63.15a26.1 26.1 0 0 1-13.55-34A25.46 25.46 0 0 1 99 651.06l123 53 213.64-531.54a122.8 122.8 0 0 0 41.95 32.64z m479.71 50.11A25.49 25.49 0 0 1 923.72 269l-283-121.92c1-2 1.92-4.11 2.81-6.23a126.32 126.32 0 0 0 9.78-44.77l290.44 125.14a26.1 26.1 0 0 1 13.55 34.05z m-87.11 61.8l-79.65 190.1a16.9 16.9 0 0 1-22.28 9.12L470.64 388.07a17.33 17.33 0 0 1-9-22.6L524 216.57a122.74 122.74 0 0 0 86.12-30.25l251 108.16a17.32 17.32 0 0 1 9.07 22.59zM197.39 474.53H92.12c-15.39 0-27.85 11.62-27.85 26 0 14.34 12.46 26 27.85 26h105.27zM259 338.49H122.15c-15.39 0-27.86 11.63-27.86 26 0 14.34 12.47 26 27.86 26H259z m81.22-136.03h-188c-15.39 0-27.86 11.62-27.86 26 0 14.34 12.47 26 27.86 26h188z m275.85-73.09c-20.15 48.09-74.92 70.51-122.34 50.08s-69.53-76-49.38-124.06 74.92-70.5 122.34-50.07 69.52 75.97 49.38 124.05z m-85.86-73.73a36.75 36.75 0 1 0 36.57 36.74 36.65 36.65 0 0 0-36.57-36.74z"  horiz-adv-x="1024" />

    
    <glyph glyph-name="heyan" unicode="&#58904;" d="M958.7 244.3V483.7c0 38.5 2.9 73.9-0.2 102.2V704.6s3.8 22.7-22.7 22.7H773.4l-13.6-19.6c-0.9 2.7-2.2 5.4-4.4 8-5.3 6.3-13.5 9.5-24.3 9.5H597.9C543.8 797.6 457.4 844.6 360.3 844.6 196.9 844.6 64 711.7 64 548.3c0-79.1 30.8-153.5 86.7-209.5 7.2-7.3 14.8-14 22.6-20.4v-74.1c0-92.8-13-168 79.8-168l370.4-0.6 72.7-108.3c15.2-22.5 37.1-38.5 58.8-42.8 14.4-2.9 27.8-0.5 38.7 6.8 28.3 19 29.9 64.6 3.6 103.8l-27.6 41.1h113.4c92.8 0 75.6 75.2 75.6 168zM731.1 710.1c6 0 10.3-1.4 12.7-4 2.3-2.6 2.6-6.1 2.6-8.1 0-1-0.1-1.7-0.1-1.7-0.1-0.4-0.1-0.8-0.1-1.2v-6.9l-25.3-36.4H638c-7.8 20.6-17.7 40.1-29.6 58.3h122.7zM171.7 359.7c-50.4 50.4-78.1 117.4-78.1 188.6C93.6 695.4 213.3 815 360.3 815 507.4 815.1 627 695.4 627 548.3c0-69.2-26.5-132.4-69.9-179.8-30.6-31.2-52.6-37.3-77.2-58.5-36-18.1-76.6-28.4-119.6-28.4-71.3 0-138.3 27.7-188.6 78.1z m297.2-87c46.4 18.3 87.1 48.1 118.7 85.7 6-12.4 11.4-30.3 8.4-43.6-4.1-18.5-54.2-58.2-85.4-63.4-14.8-2.4-30.9 10-41.7 21.3z m303.8-254c8.7-13 12.9-26.2 13.6-37.4 0.6-11.7-2.8-21.2-9.1-25.4-5.4-3.6-11.9-3.3-16.5-2.4-13.9 2.8-29.2 14.4-39.9 30.3L549.3 239.3c18 9.5 36.6 23.1 50.4 37.2l173-257.8zM536.1 649.7h15.8c-3 5.6-6.4 11.1-9.9 16.5-1.9-2.8-3.9-5.6-5.9-8.4v-8.1zM595.7 548.3c0 1-0.1 2-0.1 2.9v11.5h-0.4c-0.1 0.8-0.2 1.6-0.2 2.4-0.2 2.9-0.5 5.8-0.8 8.7-0.2 1.5-0.4 3.1-0.6 4.6-0.3 2.7-0.7 5.3-1.1 8-0.3 1.6-0.6 3.1-0.9 4.7-0.5 2.6-1 5.2-1.6 7.8-0.3 1.5-0.6 3-1 4.5-0.7 2.6-1.3 5.2-2.1 7.8-0.4 1.4-0.8 2.8-1.2 4.1-0.8 2.7-1.7 5.4-2.6 8.1l-1.2 3.6c-1.1 3-2.2 5.9-3.4 8.9-0.3 0.9-0.6 1.7-1 2.6-1.5 3.7-3.2 7.4-4.9 11 0 0 0 0.1-0.1 0.1-2.2 4.6-4.6 9.1-7.1 13.5-0.5 0.8-1 1.6-1.4 2.5-2.3 3.9-4.6 7.7-7 11.5-0.4 0.5-0.6 1-1 1.5-2.8 4.2-5.7 8.2-8.7 12.2-0.5 0.6-1 1.2-1.5 1.9-2.6 3.4-5.4 6.8-8.3 10-0.6 0.7-1.2 1.4-1.8 2-3.3 3.7-6.7 7.4-10.2 10.8-0.4 0.4-0.8 0.7-1.1 1.1-3.2 3.1-6.5 6.1-9.8 9l-2.4 2.1c-7.5 6.4-15.4 12.3-23.7 17.7-0.9 0.6-1.9 1.3-2.9 1.9-3.8 2.4-7.6 4.7-11.5 6.9-0.4 0.2-0.8 0.5-1.2 0.7-4.3 2.3-8.7 4.6-13.2 6.6-1 0.5-2.1 1-3.2 1.4-3.8 1.7-7.6 3.3-11.4 4.8-0.9 0.3-1.8 0.7-2.7 1.1-4.6 1.7-9.3 3.3-14 4.7-1 0.3-2.1 0.6-3.1 0.9-3.9 1.1-7.9 2.2-11.9 3.1-1.2 0.3-2.4 0.6-3.6 0.8-4.9 1-9.8 2-14.7 2.7-0.8 0.1-1.5 0.2-2.3 0.3-4.3 0.6-8.7 1.1-13.1 1.4-1.4 0.1-2.7 0.2-4.1 0.3-5.1 0.3-10.3 0.6-15.5 0.6-129.8 0-235.4-105.6-235.4-235.4 0-6.4 0.3-12.7 0.8-19 0.1-0.9 0.1-1.9 0.2-2.8 0.5-6 1.3-11.9 2.3-17.8 0.2-1 0.3-2 0.6-3 1.1-5.9 2.4-11.8 3.9-17.6 0.2-0.6 0.3-1.1 0.5-1.7 1.7-6 3.5-12 5.6-17.8 0-0.1 0-0.1 0.1-0.2 2.1-5.9 4.5-11.6 7.1-17.3 0.3-0.6 0.5-1.1 0.8-1.7 2.6-5.5 5.4-11 8.4-16.2 0.3-0.5 0.5-0.9 0.8-1.4 12.7-22.2 28.9-42.2 47.9-59.1 0.4-0.4 0.8-0.7 1.2-1 2.7-2.4 5.4-4.6 8.2-6.9 0.7-0.5 1.4-1.1 2-1.6 2.5-2 5.1-3.9 7.8-5.9 0.8-0.6 1.6-1.2 2.5-1.8 2.6-1.8 5.2-3.6 7.9-5.3 0.8-0.5 1.7-1.1 2.6-1.6 2.8-1.7 5.6-3.4 8.5-5 0.7-0.4 1.5-0.9 2.2-1.3 3.4-1.9 6.8-3.7 10.3-5.4l0.6-0.3c3.9-1.9 7.8-3.7 11.7-5.3 0.1 0 0.2-0.1 0.3-0.1 3.7-1.5 7.4-3 11.2-4.4 1.1-0.4 2.2-0.8 3.3-1.1 2.8-1 5.6-1.9 8.5-2.8 1.4-0.4 2.8-0.8 4.3-1.2 2.6-0.7 5.2-1.4 7.8-2 1.5-0.4 3.1-0.8 4.7-1.1 2.6-0.6 5.1-1.1 7.7-1.6 1.6-0.3 3.2-0.6 4.9-0.9 2.6-0.5 5.2-0.8 7.9-1.2l4.8-0.6c2.9-0.3 5.8-0.5 8.7-0.7 1.4-0.1 2.7-0.3 4.1-0.3 4.3-0.3 8.6-0.4 13-0.4 129.7 0.1 235.3 105.7 235.3 235.5zM304.4 649.6h-47c-92.8 0-79.8-75.2-79.8-168v-49.8c-5.3 8.3-10.1 17.1-14.3 26.1l-0.3 0.6c-4.1 8.9-7.6 18.1-10.4 27.6-0.2 0.5-0.3 1-0.4 1.4-1.2 4.1-2.3 8.3-3.3 12.5-0.2 0.8-0.4 1.5-0.5 2.3-1 4.6-1.9 9.3-2.6 14-0.1 0.6-0.1 1.2-0.2 1.7-0.6 4.1-1 8.2-1.4 12.3l-0.3 3.6c-0.3 4.7-0.5 9.5-0.5 14.3 0 119.6 97.3 216.8 216.8 216.8 3.8 0 7.6-0.1 11.3-0.3 0.9 0 1.9-0.2 2.8-0.2 2.8-0.2 5.6-0.4 8.3-0.7 0.9-0.1 1.9-0.2 2.8-0.4 2.7-0.3 5.5-0.7 8.2-1.1 0.8-0.1 1.5-0.3 2.3-0.4 2.9-0.5 5.8-1 8.6-1.6 0.5-0.1 1-0.2 1.6-0.4 3.1-0.7 6.1-1.4 9.2-2.2 0.3-0.1 0.5-0.2 0.8-0.2 3.3-0.9 6.5-1.8 9.7-2.8h0.1c34.5-11.1 65.3-30.6 89.9-56-1.4 0.3-2.8 0.6-4.3 0.8-1.8 0.3-3.8 0.5-5.8 0.5H343.5c-2.5 0-4.8-1.2-6.2-3.2l-32.9-47.2z m216.7 21.5c-0.1-0.4-0.1-0.8-0.1-1.2v-7.4l-9-12.9H322.8c9 12.9 16.7 23.9 21 30.2 1.3 1.8 2.2 3.2 2.9 4.1 0.4 0.5 0.7 0.9 0.8 1.2H506c6 0 10.3-1.4 12.7-4.1 2.2-2.6 2.6-6.1 2.6-8.1 0-1.1-0.2-1.8-0.2-1.8z"  horiz-adv-x="1024" />

    
    <glyph glyph-name="yonghu" unicode="&#58905;" d="M690.493 599.337c-4.833 0.747-9.656 0-14.295-1.505 1.567 29.48 2.315 61.02 0.246 84.418-3.512 37.878-26.839 78.019-48.978 94.198-35.246 25.59-89.743 37.376-110.315 37.376-20.45 0-75.07-11.786-110.254-37.376-22.2-16.18-45.466-56.32-48.917-94.198-2.13-23.398-1.382-54.937 0.184-84.418-4.638 1.505-9.461 2.263-14.356 1.505-14.172-2.13-23.962-16.25-16.998-50.616 6.901-34.427 16.937-57.262 33.874-55.941 1.003 0.061 1.566 0.44 2.508 0.624 5.591-43.714 48.794-112.886 86.231-137.595 9.534-13.353 36.311-24.525 67.738-23.582 31.427-0.943 58.327 10.22 67.738 23.582 37.56 24.71 80.65 93.88 86.23 137.595 0.943-0.184 1.506-0.563 2.51-0.624 16.998-1.321 27.033 21.514 33.873 55.94 7.004 34.376-2.775 48.487-17.019 50.617z m115.651-363.5c-64.154 32.113-160.553 64.215-160.553 64.215-11.479-70.993-42.138-153.405-84.92-225.146a1344.645 1344.645 0 0 1-11.346 122.419c10.844 17.06 17.94 31.109 22.518 42.27 5.386 13.61-4.26 28.345-18.566 28.345h-72.12c-14.428 0-23.9-14.93-18.565-28.344 4.577-11.162 11.663-25.211 22.518-42.271-6.277-44.4-9.595-86.293-11.418-122.42-42.772 71.62-73.503 154.154-84.971 225.147 0 0-96.328-32.112-160.553-64.215-64.154-32.112-96.328-75.253-96.328-160.553v-48.168a80.282 80.282 0 0 1 80.343-80.272h609.956a80.282 80.282 0 0 1 80.343 80.272v48.168c-0.01 85.3-32.184 128.451-96.338 160.553z"  horiz-adv-x="1024" />

    
    <glyph glyph-name="shanchu1" unicode="&#59001;" d="M799.2 21.6c0-34.4-28.001-62.4-62.4-62.4H287.2c-34.4 0-62.4 28-62.4 62.4V684h574.4v-662.4zM349.6 796c0 7.2 5.6 12.8 12.8 12.8h300c7.2 0 12.8-5.6 12.8-12.8v-37.6H349.6V796z m636.8-37.6H749.6V796c0 48.001-39.2 87.2-87.2 87.2h-300c-48 0-87.2-39.199-87.2-87.2v-37.6H37.6C16.8 758.4 0 741.6 0 720.8s16.8-37.6 37.6-37.6h112v-661.6c0-76 61.6-137.6 137.6-137.6h449.6c76 0 137.6 61.6 137.6 137.6V684h112c20.8 0 37.6 16.8 37.6 37.6s-16.8 36.8-37.6 36.8zM512 72c20.8 0 37.6 16.8 37.6 37.6v400c0 20.8-16.8 37.6-37.6 37.6s-37.6-16.8-37.6-37.6v-400c0-20.8 16.8-37.6 37.6-37.6m-175.2 0c20.8 0 37.6 16.8 37.6 37.6v400c0 20.8-16.8 37.6-37.6 37.6s-37.6-16.8-37.6-37.6v-400c0.8-20.8 17.6-37.6 37.6-37.6m350.4 0c20.8 0 37.6 16.8 37.6 37.6v400c0 20.8-16.8 37.6-37.6 37.6s-37.6-16.8-37.6-37.6v-400c0-20.8 16.8-37.6 37.6-37.6"  horiz-adv-x="1024" />

    
    <glyph glyph-name="qiyeziping" unicode="&#58996;" d="M512 878.933C238.933 878.933 17.067 657.067 17.067 384S238.933-110.933 512-110.933 1006.933 110.933 1006.933 384 785.067 878.933 512 878.933z m281.6-512l-247.467-281.6c-25.6-25.6-34.133-25.6-59.733 0l-256 281.6c-17.067 25.6-42.667 59.734-42.667 102.4 0 85.334 68.267 162.134 162.134 162.134 68.266 0 119.466-34.134 162.133-76.8 42.667 42.666 93.867 76.8 162.133 76.8 93.867 0 162.134-76.8 162.134-162.134 0-42.666-17.067-76.8-42.667-102.4z"  horiz-adv-x="1024" />

    
    <glyph glyph-name="kaohezhibiao" unicode="&#58997;" d="M895.86 829.93H129.73c-35.24 0-64.08-28.84-64.08-64.08v-766.13c0-35.24 28.84-64.08 64.08-64.08h766.13c35.24 0 64.08 28.84 64.08 64.08V765.86c0 35.23-28.84 64.07-64.08 64.07zM562.57 152.18l-199.5 217.78-115.29-170.88-76.93 56.63h-0.02l192.24 263.21 199.49-225.66 213.6 327.96 77.64-61.13-291.23-407.91z m0 0"  horiz-adv-x="1024" />

    
    <glyph glyph-name="bumenchuping" unicode="&#58998;" d="M364.8 384c-45.653 30.293-96 54.187-150.613 68.693C268.8 438.187 319.147 414.293 364.8 384z m445.013 68.693c-55.04-14.506-106.24-38.826-152.32-69.973 46.08 31.147 97.28 55.467 152.32 69.973zM660.907 485.12c-7.68 119.04-55.894 235.093-146.347 325.547-91.307-91.307-141.653-207.36-151.467-325.547 54.614-29.013 104.96-66.56 148.907-112.213 43.947 45.226 94.293 82.773 148.907 112.213zM383.573 372.053c-5.973 4.267-12.8 8.107-19.2 12.374 6.4-4.694 13.227-8.107 19.2-12.374z m273.92 10.667c-5.546-3.84-11.52-6.827-17.066-11.093 5.546 4.266 11.52 7.253 17.066 11.093zM512 236.8C420.267 376.747 263.68 469.333 85.333 469.333c0-226.986 143.36-418.986 342.614-490.24 26.88-9.813 55.04-17.066 84.053-21.76 29.013 5.12 56.747 12.374 84.053 21.76 199.254 71.254 342.614 263.254 342.614 490.24-178.347 0-334.934-92.586-426.667-232.533z"  horiz-adv-x="1024" />

    
    <glyph glyph-name="kaohedangan" unicode="&#58999;" d="M858.624 518.4H165.427c-8.55 0-15.923-3.174-22.17-9.523s-9.369-13.824-9.369-22.477v-479.949c0-8.704 3.123-16.179 9.37-22.528a30.054 30.054 0 0 1 22.17-9.523h693.145a30.208 30.208 0 0 1 22.22 9.523 31.232 31.232 0 0 1 9.37 22.528V486.4a31.334 31.334 0 0 1-9.318 22.528 30.464 30.464 0 0 1-22.221 9.472zM597.248 367.974a30.106 30.106 0 0 0-22.17-9.523H449.024c-8.55 0-15.974 3.226-22.17 9.523s-9.318 13.824-9.318 22.477a30.413 30.413 0 0 0 9.318 22.426 30.208 30.208 0 0 0 22.17 9.574h125.952c8.602 0 15.974-3.225 22.22-9.523 6.247-6.349 9.422-13.824 9.422-22.477s-3.124-16.128-9.37-22.477z m315.085 416.103a30.106 30.106 0 0 1-22.17 9.523H133.94a29.85 29.85 0 0 1-22.17-9.523 30.976 30.976 0 0 1-9.369-22.528V633.6c0-8.653 3.123-16.128 9.318-22.477a30.106 30.106 0 0 1 22.17-9.523h756.173a30.157 30.157 0 0 1 22.22 9.523A31.334 31.334 0 0 1 921.6 633.6V761.549a31.283 31.283 0 0 1-9.267 22.528z"  horiz-adv-x="1024" />

    
    <glyph glyph-name="dengjiheding" unicode="&#59000;" d="M512.2 672C292.2 672 113 492.8 113 272.8s179.2-399.2 399.2-399.2 399.2 179.2 399.2 399.2S732.1 672 512.2 672z m116.1-585.9l-120.2 65.2-122.2-61.8s-3.4-0.7-7.5 2-3.4 6.8-3.4 6.8l25.1 134.4-97.1 97.8s-2 3.4-1.4 7.5c0.7 4.1 4.1 5.4 4.1 5.4l137.8 18.3L506 484s2 2 6.8 2 7.5-2 7.5-2l59.1-123.6 135.8-21.7s2.7-2 3.4-6.8c0.7-4.1-0.7-7.5-0.7-7.5l-99.1-93.7 21-136.5s0-3.4-4.8-6.1c-4.7-2.7-6.7-2-6.7-2zM349.9 874.4c0 8.2 2.7 14.9 7.5 21H129.9c-19 0-34.6-15.6-34.6-34.6v-177.2c0-9.5 4.1-19 11.5-25.8L157 613c9.5-8.1 21.7-10.9 33.3-7.5 45.5 44.1 99.8 78.8 159.6 101.2V874.4z m253.2 0c0 8.2 2.7 14.9 7.5 21H411.7c4.8-6.1 7.5-12.9 7.5-21V727c29.9 6.1 61.1 9.5 93 9.5 31.2 0 61.8-3.4 91-8.8V874.4zM894.4 895.4H664.9c4.8-6.1 7.5-12.9 7.5-21V708c63.8-23.8 120.9-61.1 168.4-108.6 8.8 0 16.3 3.4 22.4 9.5l54.3 48.9c7.5 6.8 11.5 16.3 11.5 25.8V860.8c0 19-15.6 34.6-34.6 34.6z m0 0"  horiz-adv-x="1024" />

    
    <glyph glyph-name="biaozhu" unicode="&#58994;" d="M878.3 503.9L631.9 750.3c-6.5 6.5-15 9.7-23.5 9.7s-17-3.2-23.5-9.7L423.8 589.1c-12.2 1.4-24.5 2-36.8 2-73.2 0-146.4-24.1-206.5-72.3-15.4-12.3-16.6-35.4-2.7-49.4l181.7-181.7-215.4-215.2c-2.6-2.6-4.3-6.1-4.6-9.8l-3.4-37.2c-0.9-9.4 6.6-17.4 15.9-17.4 0.5 0 1 0 1.5 0.1l37.2 3.4c3.7 0.3 7.2 2 9.8 4.6l215.4 215.4 181.7-181.7c6.5-6.5 15-9.7 23.5-9.7 9.7 0 19.3 4.2 25.9 12.4 56.3 70.3 79.7 158.3 70.2 243.4l161.1 161.1c12.9 12.8 12.9 33.8 0 46.8z"  horiz-adv-x="1024" />

    
    <glyph glyph-name="xiugaiweizhi" unicode="&#58995;" d="M0 91.118v-219.067h213.434L767.859 485.52 554.426 704.176z m938.38 569.531a69.335 69.335 0 0 1 0 87.873L810.772 879.818a64.522 64.522 0 0 1-85.26 0L597.49 748.522l213.434-219.169zM426.817-40.23l-85.26-87.719h682.598v87.821z"  horiz-adv-x="1024" />

    
    <glyph glyph-name="zhuangxieguochengbaojing" unicode="&#58992;" d="M96.65 67.9h810.22a67.505 67.505 0 1 0 0-135.011H96.65a67.505 67.505 0 0 0 0 135.01z m742.715 67.504v405.11a337.605 337.605 0 1 1-675.21 0v-405.11h675.21zM366.75 540.514c37.257 0 67.505-30.247 67.505-67.505V337.92a67.505 67.505 0 1 0-135.01 0V473.01c0 37.257 30.168 67.504 67.505 67.504z"  horiz-adv-x="1024" />

    
    <glyph glyph-name="cheliangweiguibaojing" unicode="&#58993;" d="M951.136 126.464L516.48-124.48 81.792 126.464v501.92L516.48 879.36l434.656-250.976v-501.92zM516.48 59.52c36.8 0 66.912 30.112 66.944 66.944a67.136 67.136 0 0 1-66.944 66.944 67.136 67.136 0 0 1-66.944-66.944c0-36.832 30.144-66.944 66.944-66.944z m66.912 301.184V628.416a67.136 67.136 0 0 1-66.944 66.944 67.136 67.136 0 0 1-66.944-66.944v-267.712c0-36.832 30.112-66.944 66.944-66.944a67.136 67.136 0 0 1 66.944 66.944z"  horiz-adv-x="1024" />

    
    <glyph glyph-name="zonghechaxun" unicode="&#58991;" d="M691.81 379.507c-32.758-32.762-49.06-72.042-49.06-118.155 0-46.029 16.302-85.392 49.06-118.15 32.763-32.76 72.043-49.065 118.155-49.065 46.11 0 85.469 16.386 118.148 49.064 32.762 32.759 49.063 72.039 49.063 118.151 0 46.037-16.3 85.393-49.063 118.155-32.759 32.759-72.039 49.06-118.148 49.06-46.036 0-85.392-16.301-118.155-49.06zM1094.537 44.363V816.13c0 44.112-35.758 79.87-79.87 79.87H79.87C35.758 896 0 860.242 0 816.13v-864.26C0-92.242 35.758-128 79.87-128h934.797c31.724 0 59.044 18.542 71.935 45.338L958.858 44.926c-44.483-30.898-94.242-46.349-148.893-46.349-35.553 0-69.638 6.909-102.085 20.73-32.53 13.818-60.473 32.527-83.999 55.973-23.521 23.522-42.15 51.468-55.972 83.995-13.19 31.057-20.012 63.476-20.61 97.29v9.575c0.594 33.825 7.415 66.312 20.61 97.294 13.821 32.53 32.527 60.477 55.972 83.998 23.446 23.518 51.468 42.148 84 55.969 32.526 13.813 66.527 20.726 102.084 20.726 35.554 0 69.63-6.909 102.082-20.726 32.527-13.821 60.473-32.527 83.995-55.969 23.525-23.525 42.155-51.472 55.972-83.998 13.822-32.527 20.73-66.528 20.73-102.086 0-54.726-15.45-104.41-46.344-148.889l68.137-68.096zM467.56 474.732c0-19.7-13.41-35.658-29.952-35.658H108.151c-16.545 0-29.95 15.958-29.95 35.658v28.525c0 19.696 13.41 35.658 29.95 35.658H437.61c16.541 0 29.952-15.962 29.952-35.658v-28.525zM679.215 690.38c0-19.696-20.698-35.658-46.233-35.658H124.43c-25.534 0-46.233 15.962-46.233 35.658v28.525c0 19.696 20.699 35.658 46.233 35.658h508.553c25.535 0 46.233-15.962 46.233-35.658v-28.525z"  horiz-adv-x="1094" />

    
    <glyph glyph-name="chuli" unicode="&#58990;" d="M844.84 310.814a38.397 38.397 0 0 1-38.408-38.407v-272.403a51.26 51.26 0 0 0-51.22-51.19h-620.77a51.25 51.25 0 0 0-51.19 51.19V767.996a51.25 51.25 0 0 0 51.19 51.19H492.85a38.407 38.407 0 1 1 0 76.814H134.442C63.914 896 6.44 838.564 6.44 767.996v-767.992C6.439-70.554 63.874-128 134.432-128h620.78c70.589 0 128.034 57.436 128.034 127.994V272.417a38.397 38.397 0 0 1-38.407 38.397zM150.438 130.66a38.397 38.397 0 0 1 38.407-38.407h421.307a38.407 38.407 0 1 1 0 76.814H188.845a38.397 38.397 0 0 1-38.407-38.407z m182.496 307.347H188.795a38.407 38.407 0 0 1 0-76.814h144.14a38.407 38.407 0 1 1 0 76.814z m675.283 296.056l-144.97 145.22a32.031 32.031 0 0 1-45.284 0L491.027 552.409a31.89 31.89 0 0 1-9.339-23.843l5.435-143.78a31.96 31.96 0 0 1 31.661-30.809l139.655-1.341h0.31a32.031 32.031 0 0 1 22.622 9.379l326.806 326.806a32.031 32.031 0 0 1 0.04 45.243z m-362.59-317.306l-95.723 0.94-3.754 99.317L840.555 811.418l99.747-99.906z"  horiz-adv-x="1024" />

    
    <glyph glyph-name="qiaoliang" unicode="&#58989;" d="M278.67510987 610.54357911l34.4668579-34.31854249a28.59851075 28.59851075 0 0 0 8.42926025-20.26977539v-343.59741211c0-7.60528565-3.03222656-14.88922119-8.42926025-20.26977539l-34.4668579-34.32678222c-11.23901367-11.1895752-11.23901367-29.34173584 0-40.53131104l44.30511474-44.11560058c11.23901367-11.1895752 29.46533203-11.1895752 40.7043457 0l84.45739747 84.09484863a28.59851075 28.59851075 0 0 1 8.42926024 20.26977539V590.83410645c0 7.60528565-3.03222656 14.88922119-8.42926025 20.26977538L363.68457031 695.19873047c-11.23901367 11.1895752-29.46533203 11.1895752-40.7043457 0l-44.30511474-44.11560059c-11.23901367-11.19781494-11.23901367-29.34173584 0-40.53955078z m433.00689697-34.31854249l34.4668579 34.31854249c11.23901367 11.1895752 11.23901367 29.34173584 0 40.53131102l-44.30511474 44.1156006c-11.23901367 11.19781494-29.46533203 11.19781494-40.71258545 0L576.69024658 611.10388184a28.59851075 28.59851075 0 0 1-8.42926025-20.2697754v-413.35510253c0-7.60528565 3.03222656-14.88922119 8.42926025-20.26977539L661.1394043 73.12261963000003c11.23901367-11.1895752 29.46533203-11.1895752 40.7043457 0l44.296875 44.11560058c11.23901367 11.1895752 11.23901367 29.34173584 0 40.53131104l-34.46685791 34.31854248a28.59851075 28.59851075 0 0 0-8.42926025 20.26977539v343.59741211c0.00823974 7.60528565 3.04046631 14.88922119 8.4375 20.26977539z"  horiz-adv-x="1024" />

    
    <glyph glyph-name="suidao" unicode="&#58988;" d="M516.71010571 709.88839531C247.15202873 709.88839531 201.57857345 467.12700083 201.57857345 467.12700083V58.74810547000004h61.93152513V442.04887042S299.09049174 631.9807008 510.09049768 631.9807008s238.81508969-189.93183039 238.81508969-189.93183038V58.111604690000036h73.51583918V467.12700083C821.65762563 467.12700083 786.07723247 709.88839531 516.71010571 709.88839531z m0 0M510.98159876 578.38733579c-166.89050244 0-195.40573703-150.65973275-195.40573702-150.65973276v-324.86999406h18.52217246l104.76802708 192.60513363h0.76380094V412.13333412S450.25942511 470.43680484 515.18250386 470.43680484c64.09562775 0 72.75203825-58.30347073 72.75203825-58.30347072v-116.67059152l95.53876588-192.60513363h17.12187078V427.72760304c-0.82745101 0-22.85037772 151.29623353-189.61358001 150.65973275z m0 0M461.07993823 265.0380057l-104.76802708-192.60513363H669.21569071L565.21146454 265.0380057H461.07993823z m0 0"  horiz-adv-x="1024" />

    
    <glyph glyph-name="shipinjianceyujingxitong" unicode="&#58987;" d="M216.512-76.736c0 7.36 1.088 15.296 0.576 22.592-1.728 20.352 9.536 33.92 23.104 45.12 5.056 4.544 13.568 5.632 20.928 5.632 86.336 0.512 173.184 0 259.52 0h241.6c32.192 0 45.12-13.056 45.12-45.76 0-9.6 0.512-18.624 0.512-28.224-196.864 0.64-394.432 0.64-591.36 0.64zM968.768 803.072c-21.44 25.92-48.448 40.576-82.368 42.304H148.8c-44.544 0-79.552-17.472-102.144-56.384-6.784-11.904-10.112-26.496-14.656-40.064 0.512-180.544 0.512-362.816 0.512-544.576 6.784-16.32 10.816-34.432 20.352-48.512 22.656-33.92 55.872-48.064 95.936-48.064h252.928v-34.432c0-23.68 15.232-39.488 38.976-39.488h142.208c23.68 0 39.488 16.32 39.488 40.576v32.704c4.544 0 8.512 0.576 12.416 0.576h240.896c44.608 0 79.552 18.048 101.632 56.96 6.784 12.352 9.6 26.432 14.656 40V750.4c-4.608 18.752-10.24 37.376-23.232 52.672zM891.456 155.2c-14.656 0-25.984 11.84-26.496 25.92 0 14.656 11.84 27.136 26.496 27.136s27.136-11.84 26.496-26.496c0.64-15.296-11.84-26.56-26.496-26.56z m-18.112 99.904H150.976c-12.416 0-24.256 1.728-33.92 11.264-9.024 9.088-11.328 20.352-11.328 32.768v430.08c0 28.736 14.656 42.816 43.52 42.816h724.544c30.464 0 44.544-14.08 44.544-44.544v-427.2c0.256-31.104-13.888-45.184-44.992-45.184z m8 257.792v-72.768H655.552c-6.784 0-10.752-2.24-13.568-8.512-19.136-38.336-38.336-77.248-57.6-115.712-7.296-14.08-18.048-23.168-34.432-23.68-18.624-0.512-31.68 10.752-37.76 31.68-15.296 49.6-29.952 99.904-45.12 149.504-11.328 37.76-22.656 75.584-33.92 113.984-1.088 2.816-2.304 5.632-3.328 9.6-2.304-4.48-4.032-7.296-5.632-10.112-20.352-41.216-41.216-81.792-61.44-123.072-7.872-15.808-20.352-24.192-37.824-23.68H150.016c-1.728 0-3.328 0.576-5.632 0.576v72.768H295.04c7.808 0 11.84 2.816 15.232 9.6 31.04 62.656 62.144 125.312 93.696 187.328 7.296 14.08 17.408 23.68 33.92 23.68 18.624 0.512 31.616-10.176 37.76-29.952 20.928-68.288 41.216-136.64 61.504-204.864 6.784-22.592 13.568-45.12 20.864-69.44 1.728 2.752 3.328 4.48 3.968 6.784 9.088 18.048 18.112 35.52 27.136 53.568 7.36 15.296 19.712 23.168 36.736 23.168H878.08c0.448 0.192 1.536 0.192 3.264-0.448z"  horiz-adv-x="1024" />

    
    <glyph glyph-name="churukouyitihuahechaxitong" unicode="&#58986;" d="M984.795 896H39.205A39.278 39.278 0 0 1 0 856.795v-945.59C0-110.445 17.554-128 39.205-128h945.59c21.724 0 39.205 17.554 39.205 39.205V856.795A39.205 39.205 0 0 1 984.795 896zM666.99-14.19v96.256H113.81V229.083h553.18v98.012l243.2-170.642-243.2-170.643z m243.2 551.351H357.01v-96.256l-243.2 170.57L356.937 782.19v-98.012h553.18v-147.017z"  horiz-adv-x="1024" />

    
    <glyph glyph-name="weihuapinzhinengzhuangxiexitong" unicode="&#58985;" d="M384 404.907c0 82.347 66.9 149.334 149.162 149.334a149.418 149.418 0 0 0 149.12-149.334c0-82.346-66.902-149.333-149.12-149.333a149.418 149.418 0 0 0-149.163 149.333zM742.611 894.208c209.28-90.027 337.92-294.144 320.128-521.471-0.896-11.136-10.198-10.667-21.206-10.667h-0.981l-255.445 2.347c-5.845 0.299-11.392-1.579-15.232 2.944-3.84 4.48-5.632 8.107-4.992 13.995a232.874 232.874 0 0 1-147.157 242.772 20.565 20.565 0 0 0-12.075 11.392 20.864 20.864 0 0 0 0.512 16.726l108.8 231.551a21.205 21.205 0 0 0 27.648 10.411zM296.96 350.678a21.333 21.333 0 0 0-14.848-8.277L27.69 317.825l-2.048-0.085A21.333 21.333 0 0 0 4.565 336.3 531.924 531.924 0 0 0 296.79 882.645a21.333 21.333 0 0 0 28.16-9.13l120.533-225.707a21.248 21.248 0 0 0-10.027-29.482 234.496 234.496 0 0 1-134.357-251.221 21.205 21.205 0 0 0-4.181-16.47z m408.319-137.13l141.78-212.95a21.419 21.419 0 0 0-5.332-29.183 527.786 527.786 0 0 0-309.547-99.413 527.786 527.786 0 0 0-309.546 99.413 21.419 21.419 0 0 0-5.29 29.184l141.823 212.949a21.333 21.333 0 0 0 30.72 5.12c81.067-62.293 203.605-62.293 284.587 0a21.333 21.333 0 0 0 30.72-5.12z"  horiz-adv-x="1066" />

    
    <glyph glyph-name="baojingliebiao" unicode="&#58984;" d="M666.045 885.315c59.971 0 108.277-48.84 111.883-109.702l0.223-7.39v-127.778a31.922 31.922 0 0 0-63.577-4.274l-0.312 4.319V768.223c0 27.915-19.367 50.265-43.364 52.936l-4.853 0.267H145.007c-24.531 0-45.412-20.569-47.95-47.727l-0.267-5.52v-723.924c0-27.96 19.367-50.31 43.364-52.981l4.853-0.267h280.576a31.922 31.922 0 0 0 4.319-63.577l-4.319-0.312H145.007c-59.97 0-108.277 48.885-111.883 109.746l-0.222 7.39V768.224c0.044 61.796 45.99 113.085 104.982 116.914l7.123 0.222h521.038zM96.79 640.49h319.444q31.922 0 31.922-31.922v-0.045q0-31.922-31.922-31.922H96.79q-31.922 0-31.922 31.922v0.045q0 31.922 31.922 31.922zM724.903 495.66a217.177 217.177 0 0 0 216.999-207.47l0.223-9.662v-247.007h16.027a22.26 22.26 0 0 0 22.261-22.26v-10.864a22.26 22.26 0 0 0-22.26-22.26H797.34v-17.008c0-33.213-25.333-60.505-57.7-63.622l-6.144-0.267a63.889 63.889 0 0 0-63.889 63.889v17.052H491.609a22.26 22.26 0 0 0-22.26 22.26v10.82a22.26 22.26 0 0 0 22.26 22.26h16.028l0.044 247.007a217.177 217.177 0 0 0 207.56 216.954l9.662 0.223z m29.83-519.48h-42.608v-17.051c0-9.171 5.788-16.918 13.891-19.99l3.562-0.98 3.873-0.356a21.281 21.281 0 0 1 21.282 21.326v17.052z m-29.83 468.414a166.066 166.066 0 0 1-165.844-157.25l-0.222-8.816v-247.007h332.132V278.528a166.066 166.066 0 0 1-148.792 165.176l-8.726 0.667-8.548 0.223zM683.319 534.038h83.256q22.261 0 22.261-22.26v-19.368q0-22.26-22.26-22.26H683.32q-22.261 0-22.261 22.26v19.367q0 22.261 22.26 22.261zM703.622 555.32h44.521v-44.522h-44.521zM652.51 388.14a21.281 21.281 0 1 0 17.052-39.045c-17.452-7.569-27.425-17.586-29.428-26.58l-0.401-3.339v-163.483a21.281 21.281 0 0 0-42.207-3.83l-0.356 3.83V319.176c0 29.563 21.771 54.317 55.34 68.965zM96.79 470.15h234.274q31.922 0 31.922-31.923v-0.044q0-31.922-31.922-31.922H96.79q-31.922 0-31.922 31.922v0.044q0 31.923 31.922 31.923zM96.79 299.81h106.496q31.922 0 31.922-31.923v-0.044q0-31.922-31.922-31.922H96.79q-31.922 0-31.922 31.922v0.044q0 31.922 31.922 31.922z"  horiz-adv-x="1024" />

    
    <glyph glyph-name="zhenggaitongzhifankui" unicode="&#58983;" d="M49.518-122.587h998.107c27.319 0 49.481 22.198 49.518 49.517V732.16c0 27.319-22.199 49.481-49.518 49.518H675.401L548.498 896 417.134 781.678H49.518c-27.32 0-49.481-22.2-49.518-49.518v-805.23c0-27.319 22.199-49.48 49.518-49.517z m20.04 834.706h373.578L547.73 803.072l100.937-90.953h378.88V-53.03H69.595V712.12z m873.62-617.801H153.965v69.595h789.211v-69.595z m0 202.313H392.41V366.19h550.766v-69.56z m0 196.388h-311.48v69.632h311.48v-69.558z"  horiz-adv-x="1097" />

    
    <glyph glyph-name="jilu" unicode="&#58982;" d="M925.504 589.504H651.52a52.352 52.352 0 0 0-52.8 51.968V895.936h-64v-254.464c0-64.128 52.352-115.968 116.8-115.968h276.288v-584.96c0-37.824-31.04-68.544-69.312-68.544H165.312C127.04-128 96-97.28 96-59.456V827.52C96 865.28 127.04 896 165.312 896h450.432l309.76-306.496zM319.872 384a32 32 0 1 1 0-64h384a32 32 0 0 1 0 64h-384z m0-192a32 32 0 1 1 0-64h384a32 32 0 1 1 0 64h-384z"  horiz-adv-x="1024" />

    
    <glyph glyph-name="zhuisu" unicode="&#58981;" d="M58.388 460.214c0 55.686 36.05 127.642 80.766 160.524 0 0 322.05 242.445 372.407 242.445 50.348 0 372.903-242.797 372.903-242.797 44.312-32.73 80.264-104.335 80.264-160.12v-452.922A100.656 100.656 0 0 0 864.275-93.51H158.84A100.553 100.553 0 0 0 58.388 7.344v452.87z m206.443-50.206h-54.887c-27.804 0-50.348-22.538-50.348-50.348s22.544-50.355 50.348-50.355h54.887c20.249-98.862 97.507-176.127 196.373-196.373v-54.88a50.35 50.35 0 0 1 75.53-43.607 50.348 50.348 0 0 1 25.175 43.608v54.879c98.868 20.246 176.127 97.511 196.373 196.373h54.887c27.81 0 50.349 22.544 50.349 50.355 0 27.81-22.538 50.348-50.349 50.348h-54.887c-20.246 98.868-97.505 176.133-196.373 196.374v54.887a50.345 50.345 0 0 1-25.174 43.605 50.349 50.349 0 0 1-50.357 0 50.348 50.348 0 0 1-25.174-43.605v-54.887c-98.866-20.24-176.124-97.506-196.373-196.374z m95.67-50.348c0 83.424 67.63 151.053 151.06 151.053 83.424 0 151.053-67.63 151.053-151.053S594.985 208.6 511.561 208.6c-83.43 0-151.06 67.636-151.06 151.06z m0 0"  horiz-adv-x="1024" />

    
    <glyph glyph-name="zhenggaitongzhi" unicode="&#58980;" d="M472 701.357V752h80v-50.643C698.774 681.8 812 556.123 812 404v-272H212V404c0 152.123 113.226 277.8 260 297.357zM640 96v-80H384v80h256z"  horiz-adv-x="1024" />

    
    <glyph glyph-name="quanjubianliang" unicode="&#58979;" d="M960 384a445.22 445.22 0 0 0-448-448A445.22 445.22 0 0 0 64 384 445.22 445.22 0 0 0 512 832a445.22 445.22 0 0 0 448-448zM627.2 563.2c0 19.237-19.163 38.4-38.4 38.4H313.563c-19.163 0-38.326-19.163-38.326-38.4s19.163-38.4 38.326-38.4H588.8c19.163 0 38.4 19.237 38.4 38.4zM492.837 204.8c0 19.163-19.237 38.4-38.474 38.4h-204.8c-19.163 0-38.326-19.163-38.326-38.4s19.163-38.4 38.4-38.4h204.8c19.163 0 38.326 19.163 38.326 38.4z m294.326 0c0 19.163-19.163 38.4-38.326 38.4H652.8c-19.237 0-38.4-19.163-38.4-38.4s19.163-38.4 38.4-38.4h96.037c25.6 0 38.326 19.163 38.326 38.4z m0 179.2c0 19.237-19.163 38.4-38.326 38.4h-320c-19.237 0-38.474-19.237-38.474-38.4 0-19.237 19.237-38.4 38.474-38.4h320c25.6 0 38.326 19.237 38.326 38.4z m-64 179.2c0 19.237-19.163 38.4-38.326 38.4-19.237 0-38.4-19.163-38.4-38.4s19.163-38.4 38.4-38.4c25.6 0 38.326 19.237 38.326 38.4z"  horiz-adv-x="1024" />

    
    <glyph glyph-name="chakan" unicode="&#58978;" d="M1011.154-115.377c-8.139-8.144-18.955-12.623-30.457-12.623-11.507 0-22.323 4.479-30.457 12.618L813.826 21.094c-45.045-35.11-100.41-54.233-158.006-54.233-68.745 0-133.375 26.781-181.988 75.415-48.608 48.633-75.379 113.299-75.379 182.075 0 68.781 26.766 133.441 75.379 182.075 48.608 48.639 113.237 75.42 181.988 75.42 68.745 0 133.375-26.781 181.988-75.42 48.608-48.633 75.379-113.294 75.379-182.075 0-50.154-14.159-98.06-41.104-139.645l139.072-139.144c16.789-16.8 16.789-44.134-0.001-60.939zM655.82 53.046c45.731 0 88.729 17.818 121.069 50.174s50.149 75.374 50.149 121.131c0 45.762-17.808 88.78-50.149 121.131-32.34 32.356-75.338 50.174-121.069 50.174-45.736 0-88.734-17.818-121.074-50.174-32.34-32.356-50.149-75.369-50.149-121.131 0-45.757 17.808-88.775 50.149-121.131s75.337-50.174 121.074-50.174zM765.965 809.815H86.402v-782.266h263.212v-86.19H79.773c-43.847 0-79.52 35.693-79.52 79.561V816.444C0.253 860.312 35.926 896 79.773 896h692.821c43.847 0 79.515-35.688 79.515-79.556v-299.586h-86.144V809.815z m-454.158-657.67H207.461c-23.751 0-43.074 19.334-43.074 43.095s19.323 43.095 43.074 43.095h104.346c23.751 0 43.074-19.334 43.074-43.095s-19.322-43.095-43.074-43.095z m-147.42 477.423c0 23.761 19.323 43.095 43.074 43.095H595.29c23.751 0 43.074-19.334 43.074-43.095s-19.323-43.095-43.074-43.095H207.461c-23.751 0-43.074 19.334-43.074 43.095z m0-224.289c0 23.761 19.323 43.095 43.074 43.095h152.795c23.746 0 43.069-19.328 43.074-43.09 0-23.766-19.323-43.1-43.074-43.1H207.461c-23.751 0-43.074 19.333-43.074 43.095z"  horiz-adv-x="1024" />

    
    <glyph glyph-name="cheliangxinxi" unicode="&#58977;" d="M834.4 775.5H190.9c-69.5 0-125.8-56.1-125.8-125.4v-562.7c0-69.2 56.3-125.4 125.8-125.4h643.5c69.5 0 125.8 56.1 125.8 125.4V650.1c0 69.3-56.3 125.4-125.8 125.4zM357.1 114.4c-51 0-91.7 40.6-91.7 91.4 0 50.8 40.8 91.4 91.7 91.4 50.9 0 91.7-40.6 91.7-91.4 0-50.7-40.7-92.4-91.7-91.4zM464 444.5h58.2c20.3 0 36.7-16.4 36.7-36.6v-147.3c0-20.2-16.4-36.6-36.7-36.6h-5.3c-16.6 0-30.6 11.3-35.4 27.2-14.2 47.6-64.9 82.5-124.4 82.5-59.3 0-109.2-35.4-123.4-82.5-4.8-15.9-18.8-27.2-35.4-27.2h-42c-20.3 0-36.7 16.4-36.7 36.6V378c0 17.4 12.3 32.4 29.5 35.9l139.2 27.9c8.8 1.8 16.7 6.7 22.1 13.9l90.7 120.5c6.9 9.2 17.8 14.6 29.3 14.6h91.7c20.3 0 36.7-16.4 36.7-36.6 0-20.2-16.4-36.6-36.7-36.6H464c-9.7 0-19.1-3.9-25.9-10.7-23.1-23-6.8-62.4 25.9-62.4z m416.2-220.4H655.1c-20.3 0-36.7 16.4-36.7 36.6s16.4 36.6 36.7 36.6h225.1c20.3 0 36.7-16.4 36.7-36.6s-16.4-36.6-36.7-36.6z m0 147.3H655.1c-20.3 0-36.7 16.4-36.7 36.6 0 20.2 16.4 36.6 36.7 36.6h225.1c20.3 0 36.7-16.4 36.7-36.6 0-20.2-16.4-36.6-36.7-36.6z m0 146.3H655.1c-20.3 0-36.7 16.4-36.7 36.6 0 20.2 16.4 36.6 36.7 36.6h225.1c20.3 0 36.7-16.4 36.7-36.6 0-20.3-16.4-36.6-36.7-36.6z"  horiz-adv-x="1024" />

    
    <glyph glyph-name="jiashiyuanxinxi" unicode="&#58976;" d="M318.258-65.965a130.841 130.841 0 0 0-0.104 5.538c0 85.912 84.32 155.555 188.3 155.555 103.981 0 188.301-69.643 188.301-155.555 0-1.835-0.034-3.704-0.104-5.538H318.258z m328.28 469.193L473.57 148.296c-122.464-15.334-216.337-102.943-216.337-208.723 0-1.835 0-3.704 0.069-5.538H141.45c-33.23 51.851-47.94 94.427-44.272 127.76 5.538 50.017 138.353 283.35 193.7 311.111 55.314 27.76 95.12 38.872 221.115 38.872 61.405 0 102.32-2.63 134.545-8.55z m55.97-16.268c10.108-4.085 20.077-8.758 30.6-14.054 55.347-27.76 188.162-261.094 193.7-311.11 3.704-33.334-11.077-75.91-44.306-127.761H766.683a178.262 178.262 0 0 1 0.07 5.538c0 108.411-98.581 197.715-225.511 209.761l161.267 237.66z m-190.515 58.186c-107.061 0-193.839 87.054-193.839 194.461C318.154 746.946 404.932 834 511.993 834c107.061 0 193.839-87.054 193.839-194.427 0-107.408-86.778-194.462-193.839-194.462z"  horiz-adv-x="1024" />

    
    <glyph glyph-name="shipinbofangyingpian2" unicode="&#58975;" d="M832 768H128C57.344 768 0 710.656 0 640v-576c0-70.656 57.344-128 128-128h704c70.656 0 128 57.344 128 128V640c0 70.656-57.344 128-128 128zM688.448 324.16L368.512 132.672c-5.12-3.008-10.816-4.544-16.512-4.544-5.44 0-10.88 1.344-15.744 4.16A31.83 31.83 0 0 0 320 160.064V543.04c0 11.52 6.208 22.08 16.256 27.776 9.984 5.696 22.4 5.504 32.256-0.384l319.936-191.488A31.902 31.902 0 0 0 704 351.552a31.823 31.823 0 0 0-15.552-27.392z"  horiz-adv-x="1024" />

    
    <glyph glyph-name="renyuanbu" unicode="&#58974;" d="M885.824-52H159.52c-68.768 0-124.512 55.744-124.512 124.512v41.504h103.744c22.912 0 41.504 18.592 41.504 41.504V280.032c0 22.912-18.592 41.504-41.504 41.504H35.008V446.048h103.744c22.912 0 41.504 18.592 41.504 41.504V612.064c0 22.912-18.592 41.504-41.504 41.504H35.008v41.504c0 68.768 55.744 124.512 124.512 124.512h726.304c68.768 0 124.512-55.744 124.512-124.512v-622.56c0-68.768-55.744-124.512-124.512-124.512zM689.12 223.552c-88.832 12.128-115.584 41.568-115.584 41.568-18.784 15.936-20.832 43.168-19.936 60.512 42.496 23.136 79.584 79.872 79.584 155.84 0 98.656-64.768 130.4-121.152 130.4v-0.032c-56.352 0-121.152-31.712-121.152-130.368 0-75.968 37.12-132.704 79.584-155.84 0.928-17.344-1.12-44.576-19.936-60.512 0 0-26.72-29.44-115.584-41.568 0 0-34.4-6.048-51.168-68.352h456.576c-16.8 62.304-51.2 68.352-51.2 68.352zM116.48 612.096c12.512 0 22.688-10.016 22.688-22.4v-79.552c0-12.352-10.144-22.4-22.688-22.4H36.928c-12.512 0-22.688 15.232-22.688 27.584v74.368c0 12.384 10.176 22.4 22.688 22.4h79.552zM36.928 280.064h79.552c12.512 0 22.688-10.048 22.688-22.4v-79.552c0-12.352-10.144-22.4-22.688-22.4H36.928c-12.512 0-22.688 15.232-22.688 27.584v74.336c0 12.384 10.176 22.4 22.688 22.4z"  horiz-adv-x="1024" />

    
    <glyph glyph-name="dianziyundan" unicode="&#58973;" d="M894.130285 800.485997H740.582277c-7.253179 31.434253-36.270658 55.615327-70.122637 55.615327H594.290305c-9.671858 24.180121-32.64264 39.897724-59.24144 39.897724s-49.570534-15.717603-59.242392-39.898676h-77.378674c-33.851979 0-62.868506-24.180121-70.122637-55.614375H174.759058c-39.898676 0-70.12359-32.643592-70.123589-72.541316V-53.087617c0-39.898676 31.434253-72.541316 70.122637-72.541316H892.920946c39.898676 0 73.750656 32.64264 73.750655 72.541316V727.943729c1.209339 39.898676-32.64264 72.541316-72.541316 72.541316z m-357.873033-35.061318c32.643592 0 58.034005-26.599752 58.034006-58.034006 0-32.643592-26.5988-58.033053-58.034006-58.033053-32.64264 0-58.033053 26.5988-58.033053 58.033053s25.389461 58.033053 58.033053 58.033053z m221.251967-600.886443c0-14.509215-12.090537-26.5988-26.5988-26.5988H341.605038c-14.508263 0-26.5988 12.089585-26.5988 26.5988v24.180122c0 14.508263 12.090537 26.5988 26.5988 26.5988h389.306333c14.508263 0 26.5988-12.090537 26.5988-26.5988v-24.180122z m0 245.432088c0-14.508263-12.090537-26.5988-26.5988-26.5988H341.605038c-14.508263 0-26.5988 12.090537-26.5988 26.5988v24.180122c0 14.508263 12.090537 26.5988 26.5988 26.5988h389.306333c14.508263 0 26.5988-12.090537 26.5988-26.5988v-24.180122z"  horiz-adv-x="1087" />

    
    <glyph glyph-name="shexiangji" unicode="&#58972;" d="M510.51058819 157.22814143000005h324.35188246V301.41084232000003H510.50995168V157.22750491z m48.04498778 324.39898349c26.44342459 0 48.04498778-21.64866426 48.04498778-48.04562427 0-26.44342459-21.60156321-48.09145233-48.04498778-48.09145233a48.18501795 48.18501795 0 0 0-48.04562428 48.09145233c0 26.39696002 21.60219971 48.04562428 48.04562428 48.04562427z m336.40975307 84.079206H630.6233759a24.11574126 24.11574126 0 0 0-24.02281215 24.02217563c0 13.22203054 10.84788266 24.02281214 24.02281215 24.02281214h252.33054708c26.44342459 0 48.04562428 21.64802776 48.04562428 48.09208884 0 26.39696002-21.60219971 48.04498778-48.04562428 48.04498778H603.0157914L510.51058819 617.38255561v-51.67622469h-51.67622468L330.29366908 437.16627299v-63.68826726h-55.26099703a47.95205867 47.95205867 0 0 1-40.87607958 24.02281214C207.75963245 397.50081788 186.11160469 375.89925467 186.11160469 349.45583008999995v-192.22768867c0-26.44342459 21.64802776-48.04498778 48.04498778-48.04498777a45.15909328 45.15909328 0 0 1 40.87607958 24.02217563h55.26099703v-36.03358171a35.38244142 35.38244142 0 0 1 36.03421821-36.03421822h528.63744175a35.38244142 35.38244142 0 0 1 36.03421822 36.03421822V529.67211271a35.38244142 35.38244142 0 0 1-36.03421822 36.03421821z"  horiz-adv-x="1170" />

    
    <glyph glyph-name="iconjinchukakou-copy" unicode="&#59003;" d="M336.6100921 347.98463773000003a24.7648643 24.7648643 0 0 1-16.22470769 3.98563441l-121.82979813-40.98957085c-4.27007887 0-8.25571327-3.98563442-12.24021106-12.24020991s-4.27007887-12.24020991 0-16.50915101L268.01007475 118.55636139l11.67018326-12.24021106h3.98563441c3.98449664 0 8.25457549 0 8.25457548 4.27007886L476.373539 213.06015858a56.9298341 56.9298341 0 0 1 12.23907214 16.22470656c3.98563442 8.25457549-4.26894109 12.24020991-8.25457549 16.509151z m0 0M1275.9534885 683.87134123L1152.98477369 883.12575886A168.22836451 168.22836451 0 0 1 1005.53677797 966.52826171a236.25949297 236.25949297 0 0 1-77.71020172-16.50915103L100.06729131 540.40670322a65.1844096 65.1844096 0 0 1-36.71949197-49.24414748 14.23245881 14.23245881 0 0 1-4.27007887-12.24020993v-3.98563442c0-4.26894109 0-4.26894109 4.27007887-8.25457548a97.06493499 97.06493499 0 0 1 24.48041984-44.97406862l4.26894108-4.27007888 81.69469839-61.4843574a18.78698211 18.78698211 0 0 1 20.49478656 0l151.71807459 74.00901175 218.32584533-155.70371015a14.51804103 14.51804103 0 0 1 12.24020992-4.26894106h8.25457551l142.32458466 65.46885403a95.35713054 95.35713054 0 0 1 24.48041984-36.71949198 106.45842487 106.45842487 0 0 1 142.32458469 0 107.88178489 107.88178489 0 0 1 20.49478656 118.69863481l339.871199 151.71807574a72.30120733 72.30120733 0 0 1 40.98957084 65.46999182v12.52465436c-8.25457549 12.52351659-12.24020991 24.76372652-20.49478541 37.00393642z m0 0M1267.69777523 433.94827719h-69.4533507a73.44012289 73.44012289 0 0 1-73.72456731-73.72342841v-49.24414747H956.57707492a20.77922987 20.77922987 0 0 1-16.50915101-8.25571329 144.31683357 144.31683357 0 0 0-188.43870662-56.9298341h-8.2545755a17.93251101 17.93251101 0 0 1-20.49478544-4.2689411c-8.25457549-3.98563442-8.25457549-12.24020991-8.25457549-20.49478541 16.50915101-40.70512754 85.39475058-113.8596682 142.32458468-113.85966819h266.43107612v-7.97013106a73.44012289 73.44012289 0 0 1 73.72456733-73.72456733h69.45448846a19.07142656 19.07142656 0 0 1 20.49478542 20.49478543V413.45462956a19.35587101 19.35587101 0 0 1-20.49478542 20.49478541z m0 0"  horiz-adv-x="1414" />

    
    <glyph glyph-name="jinchukakou" unicode="&#58971;" d="M384.98325414 357.91780307a17.93462641 17.93462641 0 0 1-11.74987546 2.88638224l-88.22870535-29.68450105c-3.09237589 0-5.97875812-2.88638223-8.86431721-8.86431637s-3.09237589-8.86431637 0-11.95586829L335.3033662 191.76666348000003l8.45150509-8.86431719h2.88638223c2.88555826 0 5.97793414 0 5.97793414 3.09237588L486.19944399 260.20597641999996a41.22838284 41.22838284 0 0 1 8.86349239 11.74987463c2.88638223 5.97793414-3.09155191 8.86431637-5.97793413 11.95586828z m0 0M1065.25239213 601.16575598L976.19888737 745.4650947A121.83038168 121.83038168 0 0 1 869.41757467 805.86488984a171.09828232 171.09828232 0 0 1-56.27745099-11.9558683L213.67980132 497.26917673a47.20631699 47.20631699 0 0 1-26.59212516-35.662436 10.30709592 10.30709592 0 0 1-3.09237588-8.86431639v-2.88638223c0-3.09155191 0-3.09155191 3.09237588-5.97793413a70.29407978 70.29407978 0 0 1 17.72863276-32.57006012l3.09155191-3.09237589 59.16300924-44.52675238a13.60546545 13.60546545 0 0 1 14.84225135 0l109.8736886 53.5970624 158.11079864-112.76007166a10.51391355 10.51391355 0 0 1 8.86431637-3.0915519h5.97793415l103.07095669 47.41231064a69.05729389 69.05729389 0 0 1 17.72863275-26.59212515 77.09681167 77.09681167 0 0 1 103.0709567 0 78.12760391 78.12760391 0 0 1 14.84225135 85.96112805l246.13351034 109.87368942a52.36027652 52.36027652 0 0 1 29.68450103 47.41313461v9.07031003c-5.97793414 9.06948606-8.86431637 17.93380243-14.84225051 26.7981188z m0 0M1059.27363402 420.17236423h-50.2978689a53.18507511 53.18507511 0 0 1-53.39106875-53.39024396v-35.662436H833.96113231a15.04824417 15.04824417 0 0 1-11.95586829-5.97875812 104.51373623 104.51373623 0 0 0-136.46663937-41.22838285h-5.97793414a12.98666052 12.98666052 0 0 1-14.84225052-3.09155191c-5.97793414-2.88638223-5.97793414-8.86431637-5.97793415-14.84225052 11.95586828-29.47850821 61.84257385-82.45676569 103.0709567-82.45676568h192.94843524v-5.77194049a53.18507511 53.18507511 0 0 1 53.39106876-53.39106876h50.29869287a13.81145911 13.81145911 0 0 1 14.84225052 14.84225052V405.33093769a14.01745276 14.01745276 0 0 1-14.84225052 14.84225051z m0 0"  horiz-adv-x="1414" />

    
    </font>
</defs>
</svg>
